<svg width="40" height="40" viewBox="0 0 40 40" fill="none" xmlns="http://www.w3.org/2000/svg">
<circle cx="20" cy="20" r="20" fill="#3388F2"/>
<path d="M17.9999 22L28.9999 11M17.9999 22L21.4999 29C21.5438 29.0957 21.6143 29.1769 21.7029 29.2338C21.7915 29.2906 21.8946 29.3209 21.9999 29.3209C22.1053 29.3209 22.2084 29.2906 22.297 29.2338C22.3856 29.1769 22.4561 29.0957 22.4999 29L28.9999 11M17.9999 22L10.9999 18.5C10.9042 18.4561 10.8231 18.3857 10.7662 18.2971C10.7093 18.2084 10.6791 18.1053 10.6791 18C10.6791 17.8947 10.7093 17.7916 10.7662 17.7029C10.8231 17.6143 10.9042 17.5439 10.9999 17.5L28.9999 11" stroke="white" stroke-width="2" stroke-linecap="round" stroke-linejoin="round"/>
</svg>
