<svg width="36" height="26" viewBox="0 0 36 26" fill="none" xmlns="http://www.w3.org/2000/svg">
<path d="M36 6.46094V4.5625C36 2.38788 34.2371 0.625 32.0625 0.625H3.9375C1.76288 0.625 0 2.38788 0 4.5625V6.46094C0 6.65507 0.15743 6.8125 0.351562 6.8125H35.6484C35.8426 6.8125 36 6.65507 36 6.46094Z" fill="#8E8E93"/>
<path d="M0 9.41406V21.4375C0 23.6121 1.76288 25.375 3.9375 25.375H32.0625C34.2371 25.375 36 23.6121 36 21.4375V9.41406C36 9.21993 35.8426 9.0625 35.6484 9.0625H0.351562C0.15743 9.0625 0 9.21993 0 9.41406ZM9 18.625C9 19.2463 8.49628 19.75 7.875 19.75H6.75C6.12872 19.75 5.625 19.2463 5.625 18.625V17.5C5.625 16.8787 6.12872 16.375 6.75 16.375H7.875C8.49628 16.375 9 16.8787 9 17.5V18.625Z" fill="#8E8E93"/>
</svg>
