<svg width="32" height="28" viewBox="0 0 32 28" fill="none" xmlns="http://www.w3.org/2000/svg">
<path d="M30.625 25.2504H27.9182L17.2814 5.75079L19.2378 2.16429C19.5359 1.61867 19.3345 0.935791 18.7889 0.637667C18.2432 0.339542 17.5604 0.542041 17.2622 1.08654L16 3.40067L14.7378 1.08654C14.4408 0.542041 13.759 0.339542 13.2111 0.637667C12.6655 0.935791 12.4641 1.61867 12.7622 2.16429L14.7186 5.75079L4.08175 25.2504H1.375C0.754 25.2504 0.25 25.7544 0.25 26.3754C0.25 26.9964 0.754 27.5004 1.375 27.5004H30.625C31.246 27.5004 31.75 26.9964 31.75 26.3754C31.75 25.7544 31.246 25.2504 30.625 25.2504ZM19.375 25.2504H12.625V20.7504C12.625 18.8863 14.1359 17.3754 16 17.3754C17.8641 17.3754 19.375 18.8863 19.375 20.7504V25.2504Z" fill="#8E8E93"/>
</svg>
