<svg width="36" height="36" viewBox="0 0 36 36" fill="none" xmlns="http://www.w3.org/2000/svg">
<path d="M5.87109 7.78027H12.6181V11.3352H5.87109V7.78027Z" fill="#8E8E93"/>
<path d="M18.4655 2.57934C18.4066 2.23233 18.1773 1.93251 17.8476 1.78866C12.3801 -0.596184 6.10857 -0.596255 0.64113 1.78866C0.256483 1.95643 0.0078125 2.33623 0.0078125 2.75583V34.9448C0.0078125 35.5275 0.480251 36 1.06299 36H17.4257C17.9488 36 18.3818 35.619 18.4652 35.1196C18.4557 35.0626 18.4558 2.63681 18.4655 2.57934ZM14.7282 6.72478V12.39C14.7282 12.9728 14.2557 13.4452 13.673 13.4452H4.81562C4.23288 13.4452 3.76045 12.9728 3.76045 12.39V6.72478C3.76045 6.14204 4.23288 5.6696 4.81562 5.6696H13.673C14.2558 5.6696 14.7282 6.14204 14.7282 6.72478ZM7.13012 24.5375C6.75631 24.5375 6.41035 24.3396 6.2207 24.0174C6.03105 23.6951 6.02612 23.2966 6.20769 22.9698L8.55173 18.7505C8.83466 18.2411 9.47712 18.0575 9.98649 18.3405C10.4959 18.6235 10.6795 19.2659 10.3965 19.7754L8.92329 22.4271H11.3585C11.7356 22.4271 12.084 22.6284 12.2725 22.955C12.4609 23.2817 12.4607 23.6842 12.2719 24.0106L9.6992 28.458C9.50364 28.7961 9.14917 28.985 8.78485 28.985C8.60547 28.985 8.42384 28.9393 8.25747 28.843C7.75303 28.5512 7.58068 27.9057 7.8724 27.4013L9.5291 24.5374H7.13012V24.5375Z" fill="#8E8E93"/>
<path d="M34.9388 5.26407H34.6785V3.65479C34.6785 3.07205 34.206 2.59961 33.6233 2.59961C33.0406 2.59961 32.5681 3.07205 32.5681 3.65479V5.26407H30.6595V3.65479C30.6595 3.07205 30.1871 2.59961 29.6043 2.59961C29.0216 2.59961 28.5492 3.07205 28.5492 3.65479V5.26407H28.2522C27.6695 5.26407 27.1971 5.73651 27.1971 6.31925V9.14453C27.1971 11.2049 28.6234 12.9376 30.5403 13.4093V25.9956C30.5403 27.4525 29.3514 28.6378 27.89 28.6378C26.4285 28.6378 25.2396 27.4525 25.2396 25.9956V19.9396C25.2396 17.3463 23.148 15.2328 20.5605 15.189V17.2994C21.9843 17.3426 23.1293 18.5099 23.1293 19.9396V25.9956C23.1293 28.6161 25.2649 30.7482 27.89 30.7482C30.515 30.7482 32.6506 28.6161 32.6506 25.9956V13.4093C34.5675 12.9376 35.9939 11.2049 35.9939 9.14453V6.31925C35.9939 5.73651 35.5216 5.26407 34.9388 5.26407Z" fill="#8E8E93"/>
</svg>
