<svg width="12" height="16" viewBox="0 0 12 16" fill="none" xmlns="http://www.w3.org/2000/svg">
<g clip-path="url(#clip0_584_10558)">
<g filter="url(#filter0_f_584_10558)">
<ellipse cx="5.99961" cy="14.6978" rx="1.67442" ry="0.930233" fill="black" fill-opacity="0.12"/>
</g>
<mask id="path-2-outside-1_584_10558" maskUnits="userSpaceOnUse" x="0.348633" y="-0.62793" width="11" height="16" fill="black">
<rect fill="white" x="0.348633" y="-0.62793" width="11" height="16"/>
<path fill-rule="evenodd" clip-rule="evenodd" d="M10.651 5.02323C10.651 6.07402 10.3025 7.04341 9.71486 7.82218C9.50575 8.11333 9.22285 8.42316 8.90965 8.76618C7.82311 9.95615 6.37191 11.5455 6.37191 14.1395C6.37191 14.345 6.20532 14.5116 5.99982 14.5116C5.79432 14.5116 5.62773 14.345 5.62773 14.1395C5.62773 11.5455 4.17652 9.95615 3.08999 8.76618L3.08999 8.76617C2.77723 8.42364 2.49469 8.11421 2.28567 7.82342C1.69745 7.04445 1.34863 6.07458 1.34863 5.02323C1.34863 2.45447 3.43103 0.37207 5.9998 0.37207C8.56856 0.37207 10.651 2.45447 10.651 5.02323Z"/>
</mask>
<path fill-rule="evenodd" clip-rule="evenodd" d="M10.651 5.02323C10.651 6.07402 10.3025 7.04341 9.71486 7.82218C9.50575 8.11333 9.22285 8.42316 8.90965 8.76618C7.82311 9.95615 6.37191 11.5455 6.37191 14.1395C6.37191 14.345 6.20532 14.5116 5.99982 14.5116C5.79432 14.5116 5.62773 14.345 5.62773 14.1395C5.62773 11.5455 4.17652 9.95615 3.08999 8.76618L3.08999 8.76617C2.77723 8.42364 2.49469 8.11421 2.28567 7.82342C1.69745 7.04445 1.34863 6.07458 1.34863 5.02323C1.34863 2.45447 3.43103 0.37207 5.9998 0.37207C8.56856 0.37207 10.651 2.45447 10.651 5.02323Z" fill="#6393F2"/>
<path d="M9.71486 7.82218L9.41775 7.59799L9.41263 7.60512L9.71486 7.82218ZM8.90965 8.76618L8.63487 8.51528V8.51528L8.90965 8.76618ZM3.08999 8.76618L2.79232 8.98943L2.8031 9.00381L2.81521 9.01707L3.08999 8.76618ZM3.08999 8.76617L3.38766 8.54292L3.37688 8.52854L3.36477 8.51528L3.08999 8.76617ZM2.28567 7.82342L2.5879 7.60619L2.58262 7.5992L2.28567 7.82342ZM10.0119 8.04631C10.6466 7.20521 11.0231 6.15766 11.0231 5.02323H10.2789C10.2789 5.99038 9.95846 6.88162 9.41784 7.59805L10.0119 8.04631ZM9.18443 9.01707C9.49309 8.67903 9.79258 8.35182 10.0171 8.03924L9.41263 7.60512C9.21892 7.87483 8.95261 8.16729 8.63487 8.51528L9.18443 9.01707ZM6.744 14.1395C6.744 11.7025 8.09636 10.2087 9.18443 9.01707L8.63487 8.51528C7.54987 9.70357 5.99982 11.3885 5.99982 14.1395H6.744ZM5.99982 14.8837C6.41082 14.8837 6.744 14.5505 6.744 14.1395H5.99982H5.99982V14.8837ZM5.25563 14.1395C5.25563 14.5505 5.58882 14.8837 5.99982 14.8837V14.1395H5.25563ZM2.81521 9.01707C3.90327 10.2087 5.25563 11.7025 5.25563 14.1395H5.99982C5.99982 11.3885 4.44977 9.70357 3.36477 8.51528L2.81521 9.01707ZM2.79231 8.98943L2.79232 8.98943L3.38766 8.54292L3.38766 8.54292L2.79231 8.98943ZM1.98354 8.0406C2.2079 8.35274 2.50697 8.67949 2.8152 9.01707L3.36477 8.51528C3.04749 8.16779 2.78148 7.87567 2.58781 7.60625L1.98354 8.0406ZM0.97654 5.02323C0.97654 6.15826 1.35343 7.20633 1.98873 8.04765L2.58262 7.5992C2.04147 6.88256 1.72073 5.99089 1.72073 5.02323H0.97654ZM5.9998 -2.27392e-05C3.22553 -2.27392e-05 0.97654 2.24897 0.97654 5.02323H1.72073C1.72073 2.65997 3.63653 0.744163 5.9998 0.744163V-2.27392e-05ZM11.0231 5.02323C11.0231 2.24897 8.77406 -2.27392e-05 5.9998 -2.27392e-05V0.744163C8.36306 0.744163 10.2789 2.65997 10.2789 5.02323H11.0231Z" fill="url(#paint0_linear_584_10558)" mask="url(#path-2-outside-1_584_10558)"/>
<circle cx="5.99961" cy="5.02305" r="1.67442" fill="black" fill-opacity="0.4"/>
</g>
<defs>
<filter id="filter0_f_584_10558" x="3.58101" y="13.0234" width="4.83701" height="3.34872" filterUnits="userSpaceOnUse" color-interpolation-filters="sRGB">
<feFlood flood-opacity="0" result="BackgroundImageFix"/>
<feBlend mode="normal" in="SourceGraphic" in2="BackgroundImageFix" result="shape"/>
<feGaussianBlur stdDeviation="0.372093" result="effect1_foregroundBlur_584_10558"/>
</filter>
<linearGradient id="paint0_linear_584_10558" x1="5.9998" y1="0.37207" x2="5.9998" y2="14.5116" gradientUnits="userSpaceOnUse">
<stop stop-color="white"/>
<stop offset="1" stop-color="white" stop-opacity="0.5"/>
</linearGradient>
<clipPath id="clip0_584_10558">
<rect width="10.0465" height="16" fill="white" transform="translate(0.976562)"/>
</clipPath>
</defs>
</svg>
