<svg width="40" height="40" viewBox="0 0 40 40" fill="none" xmlns="http://www.w3.org/2000/svg">
<circle cx="20" cy="20" r="20" fill="white"/>
<path d="M24.44 11.1001C22.63 11.1001 21.01 11.9801 20 13.3301C18.99 11.9801 17.37 11.1001 15.56 11.1001C12.49 11.1001 10 13.6001 10 16.6901C10 17.8801 10.19 18.9801 10.52 20.0001C12.1 25.0001 16.97 27.9901 19.38 28.8101C19.72 28.9301 20.28 28.9301 20.62 28.8101C23.03 27.9901 27.9 25.0001 29.48 20.0001C29.81 18.9801 30 17.8801 30 16.6901C30 13.6001 27.51 11.1001 24.44 11.1001Z" fill="#FF2D55"/>
</svg>
