<svg width="30" height="36" viewBox="0 0 30 36" fill="none" xmlns="http://www.w3.org/2000/svg">
<path d="M29.7803 4.71973L26.7803 1.7197C26.4873 1.42671 26.0127 1.42671 25.7198 1.7197C25.4268 2.0127 25.4268 2.4873 25.7198 2.78023L28.1895 5.24995L25.7198 7.71968C25.5791 7.8603 25.5 8.05071 25.5 8.24998V10.5C25.5 12.1546 26.8455 13.5 28.5 13.5V26.25C28.5 26.6638 28.1639 27 27.75 27C27.3362 27 27 26.6638 27 26.25V24.75C27 23.5093 25.9907 22.5 24.75 22.5H24V3.00002C24 1.34543 22.6546 0 21 0H6.00005C4.34552 0 3.00002 1.34543 3.00002 3.00002V30C1.3455 30 0 31.3455 0 33V35.25C0 35.6646 0.335461 36.0001 0.750023 36.0001H26.25C26.6646 36.0001 27.0001 35.6646 27.0001 35.25V33C27.0001 31.3455 25.6546 30 24 30V24H24.7501C25.1639 24 25.5001 24.3362 25.5001 24.7501V26.25C25.5001 27.4908 26.5094 28.5 27.7501 28.5C28.9908 28.5 30.0001 27.4908 30.0001 26.25V5.25002C30 5.05076 29.9209 4.86035 29.7803 4.71973ZM21 12.7639C21 13.1785 20.6646 13.5139 20.25 13.5139H6.75C6.33544 13.5139 5.99998 13.1785 5.99998 12.7639V3.74998C5.99998 3.33541 6.33544 2.99995 6.75 2.99995H20.25C20.6646 2.99995 21 3.33541 21 3.74998V12.7639Z" fill="#8E8E93"/>
</svg>
