<svg width="36" height="36" viewBox="0 0 36 36" fill="none" xmlns="http://www.w3.org/2000/svg">
<path d="M7.54523 15.6781C9.37948 15.6781 10.8717 14.1859 10.8717 12.3517C10.7044 7.94467 4.38532 7.94587 4.21875 12.3517C4.21875 14.1858 5.71099 15.6781 7.54523 15.6781Z" fill="#8E8E93"/>
<path d="M28.1329 11.2969H14.0361C13.4537 11.2969 12.9814 11.7691 12.9814 12.3516V20.3344H35.9996V19.1625C35.9996 14.1637 33.1324 11.2969 28.1329 11.2969Z" fill="#8E8E93"/>
<path d="M0 30.4261C0.0518906 31.824 2.05798 31.823 2.10938 30.4261V28.0918H33.8906V30.4261C33.9425 31.824 35.9486 31.823 36 30.4261V22.4434H0V30.4261Z" fill="#8E8E93"/>
<path d="M10.8724 16.6455C9.03839 18.1517 6.05285 18.1513 4.21875 16.6457V20.3339H10.8724V16.6455Z" fill="#8E8E93"/>
<path d="M2.10938 5.57341C2.05748 4.17552 0.0513984 4.17658 0 5.57341V20.3343H2.10938V5.57341Z" fill="#8E8E93"/>
</svg>
