<svg width="21" height="20" viewBox="0 0 21 20" fill="none" xmlns="http://www.w3.org/2000/svg">
<g clip-path="url(#clip0_99_2042)">
<path d="M11.4161 0.833984C9.40092 0.843793 7.44589 1.52184 5.85734 2.76188C4.26879 4.00193 3.13648 5.73391 2.63781 7.68648L2.02781 6.76398C1.97006 6.6674 1.89335 6.58352 1.8023 6.51739C1.71126 6.45126 1.60776 6.40426 1.49805 6.37921C1.38835 6.35417 1.27471 6.3516 1.16398 6.37167C1.05326 6.39173 0.947742 6.43402 0.853802 6.49597C0.759862 6.55792 0.679442 6.63825 0.617392 6.73213C0.555341 6.826 0.512946 6.93147 0.492762 7.04217C0.472579 7.15288 0.475025 7.26652 0.499954 7.37626C0.524882 7.48599 0.571777 7.58953 0.637809 7.68065L2.47114 10.459C2.59849 10.6372 2.78625 10.7631 2.99948 10.8132C3.2172 10.8563 3.44318 10.813 3.62948 10.6923L6.37948 8.83982C6.47429 8.78061 6.55623 8.70292 6.6204 8.61139C6.68458 8.51987 6.72968 8.41636 6.75303 8.30704C6.77638 8.19772 6.77749 8.08482 6.75631 7.97506C6.73512 7.8653 6.69207 7.76092 6.62971 7.66814C6.56736 7.57536 6.48697 7.49608 6.39334 7.43501C6.29972 7.37394 6.19476 7.33233 6.08471 7.31266C5.97467 7.29299 5.8618 7.29566 5.75281 7.32051C5.64382 7.34536 5.54095 7.39189 5.45031 7.45732L4.19948 8.30065C4.53238 6.94931 5.23842 5.71875 6.23705 4.74937C7.23567 3.78 8.48667 3.11084 9.84731 2.81825C11.2079 2.52565 12.6234 2.62141 13.9323 3.09459C15.2411 3.56777 16.3906 4.39931 17.2496 5.49435C18.1085 6.5894 18.6424 7.90383 18.7903 9.2877C18.9381 10.6716 18.694 12.0691 18.0858 13.3209C17.4776 14.5728 16.5298 15.6284 15.3505 16.3674C14.1712 17.1065 12.8079 17.4991 11.4161 17.5007C10.2231 17.4974 9.04846 17.2062 7.9921 16.6517C6.93574 16.0972 6.02889 15.2958 5.34864 14.3157C5.28772 14.2221 5.20862 14.1417 5.11604 14.0794C5.02346 14.017 4.91929 13.9738 4.80971 13.9525C4.70013 13.9311 4.58738 13.932 4.47815 13.9551C4.36892 13.9781 4.26544 14.0229 4.17385 14.0867C4.08226 14.1506 4.00443 14.2322 3.94498 14.3267C3.88553 14.4212 3.84568 14.5266 3.82778 14.6368C3.80988 14.747 3.81431 14.8597 3.8408 14.9681C3.86729 15.0766 3.9153 15.1786 3.98198 15.2682C5.08786 16.8625 6.676 18.06 8.51299 18.6847C10.35 19.3095 12.3389 19.3285 14.1875 18.7389C16.0361 18.1494 17.6468 16.9825 18.783 15.4096C19.9191 13.8367 20.5208 11.9408 20.4995 10.0007C20.5077 7.58141 19.556 5.25769 17.8531 3.53922C16.1503 1.82076 13.8354 0.847873 11.4161 0.833984Z" fill="#30B0C7"/>
<path d="M11.3333 4.95898C11.1123 4.95898 10.9004 5.04678 10.7441 5.20306C10.5878 5.35934 10.5 5.5713 10.5 5.79232V10.0007C10.5035 10.2209 10.5909 10.4316 10.7442 10.5898L13.2442 13.1123C13.401 13.2667 13.612 13.3538 13.8321 13.3548C14.0523 13.3559 14.2641 13.271 14.4225 13.1182C14.5794 12.9625 14.6681 12.751 14.669 12.53C14.6699 12.309 14.5831 12.0968 14.4275 11.9398L12.1667 9.65815V5.79232C12.1667 5.5713 12.0789 5.35934 11.9226 5.20306C11.7663 5.04678 11.5543 4.95898 11.3333 4.95898Z" fill="#30B0C7"/>
</g>
<defs>
<clipPath id="clip0_99_2042">
<rect width="20" height="20" fill="white" transform="translate(0.5)"/>
</clipPath>
</defs>
</svg>
