<svg width="36" height="34" viewBox="0 0 36 34" fill="none" xmlns="http://www.w3.org/2000/svg">
<path d="M35.4008 12.8366L18.9019 0.837476C18.302 0.387508 17.702 0.387508 17.102 0.837476L0.603178 12.8366C-0.596761 13.5866 0.153209 15.5364 1.50311 15.5364H4.50293V32.0353C4.50293 32.9352 5.10286 33.5351 6.0028 33.5351H30.0011C30.901 33.5351 31.501 32.9352 31.501 32.0353V15.5364H34.5008C35.8507 15.5364 36.6006 13.5866 35.4008 12.8366ZM18.002 30.5354C13.0523 30.5354 9.00261 26.4857 9.00261 21.536C9.00261 16.5864 13.0523 12.5367 18.002 12.5367C22.9516 12.5367 27.0013 16.5864 27.0013 21.536C27.0013 26.4857 22.9516 30.5354 18.002 30.5354Z" fill="#8E8E93"/>
</svg>
