<svg width="24" height="24" viewBox="0 0 24 24" fill="none" xmlns="http://www.w3.org/2000/svg">
    <path fill-rule="evenodd" clip-rule="evenodd"
        d="M9.25 8.25C9.25 7.00736 10.2574 6 11.5 6C12.7426 6 13.75 7.00736 13.75 8.25V9.33333H9.25V8.25ZM7.25 9.33333V8.25C7.25 5.90279 9.15279 4 11.5 4C13.8472 4 15.75 5.90279 15.75 8.25V9.33333H16C17.1046 9.33333 18 10.2288 18 11.3333V18.1667C18 19.2712 17.1046 20.1667 16 20.1667H7C5.89543 20.1667 5 19.2712 5 18.1667V11.3333C5 10.2288 5.89543 9.33333 7 9.33333H7.25ZM12.6548 15.5003C13.2628 15.1166 13.6667 14.4388 13.6667 13.6667C13.6667 12.47 12.6966 11.5 11.5 11.5C10.3034 11.5 9.33333 12.47 9.33333 13.6667C9.33333 14.4388 9.73721 15.1166 10.3452 15.5003L9.62361 18H13.3764L12.6548 15.5003Z"
        fill="#5D5D5D" />
</svg>
