<svg width="28" height="28" viewBox="0 0 28 28" fill="none" xmlns="http://www.w3.org/2000/svg">
    <defs>
        <linearGradient id="paint0_linear_278_122" x1="1.5" y1="1" x2="28" y2="28" gradientUnits="userSpaceOnUse">
            <stop stop-color="#B2ABEF" />
            <stop offset="1" stop-color="#3829BF" />
        </linearGradient>
    </defs>
    <path
        d="M12.7273 0H2.54545C1.14545 0 0 1.14545 0 2.54545V17.8182L3.81818 14H10.1818V12.7273C10.1818 9.92727 12.46 7.63636 15.2727 7.63636V2.54545C15.2727 1.14545 14.1273 0 12.7273 0ZM12.7273 3.81818H10.8182C10.3855 5.33273 9.59636 6.74545 8.50182 7.96727L8.47636 7.99273L10.08 9.58364L9.60909 10.8691L7.63636 8.90909L4.45455 12.0909L3.57636 11.1618L6.79636 7.99273C6.01828 7.13169 5.38242 6.15213 4.91273 5.09091H6.17273C6.56727 5.85455 7.05091 6.58 7.63636 7.22909C8.52749 6.23987 9.20742 5.07923 9.63455 3.81818H2.54545V2.54545H7V1.27273H8.27273V2.54545H12.7273V3.81818ZM25.4545 10.1818H15.2727C13.8727 10.1818 12.7273 11.3273 12.7273 12.7273V21.6364C12.7273 23.0364 13.8727 24.1818 15.2727 24.1818H24.1818L28 28V12.7273C28 11.3273 26.8545 10.1818 25.4545 10.1818ZM23.7109 22.9091L22.6291 20.0455H18.0982L17.0291 22.9091H15.12L19.4091 11.4545H21.3182L25.62 22.9091H23.7109ZM20.3636 14L21.9164 18.1364H18.8236L20.3636 14Z"
        fill="url(#paint0_linear_278_122)" />
</svg>
