<svg width="16" height="17" viewBox="0 0 16 17" fill="none" xmlns="http://www.w3.org/2000/svg">
<path d="M13.7467 6.13317C13.0467 3.05317 10.3601 1.6665 8.00006 1.6665C8.00006 1.6665 8.00006 1.6665 7.9934 1.6665C5.64006 1.6665 2.94673 3.0465 2.24673 6.1265C1.46673 9.5665 3.5734 12.4798 5.48006 14.3132C6.18673 14.9932 7.0934 15.3332 8.00006 15.3332C8.90673 15.3332 9.8134 14.9932 10.5134 14.3132C12.4201 12.4798 14.5267 9.57317 13.7467 6.13317ZM8.00006 9.47317C6.84006 9.47317 5.90006 8.53317 5.90006 7.37317C5.90006 6.21317 6.84006 5.27317 8.00006 5.27317C9.16006 5.27317 10.1001 6.21317 10.1001 7.37317C10.1001 8.53317 9.16006 9.47317 8.00006 9.47317Z" fill="black"/>
</svg>
