<svg width="18" height="18" viewBox="0 0 18 18" fill="none" xmlns="http://www.w3.org/2000/svg">
<path fill-rule="evenodd" clip-rule="evenodd" d="M1.88906 9.9907C1.38281 9.9907 0.972412 10.4011 0.972412 10.9073V16.0927C0.972412 16.5989 1.38281 17.0093 1.88906 17.0093H7.07445C7.58065 17.0093 7.99105 16.5989 7.99105 16.0927C7.99105 15.5864 7.58065 15.176 7.07445 15.176H4.10205L8.15465 11.1234C8.51265 10.7654 8.51265 10.185 8.15465 9.827C7.79675 9.4691 7.21635 9.4691 6.85835 9.827L2.80571 13.8797V10.9073C2.80571 10.4011 2.39531 9.9907 1.88906 9.9907ZM10.0468 1.83297C10.0468 1.32672 10.4572 0.916325 10.9635 0.916325H16.1252C16.3677 0.910045 16.6122 0.999435 16.7973 1.18449C16.9824 1.36956 17.0718 1.61408 17.0655 1.85658V7.0183C17.0655 7.5246 16.6551 7.93501 16.1488 7.93501C15.6426 7.93501 15.2322 7.5246 15.2322 7.0183V4.04596L11.1795 8.09861C10.8215 8.4566 10.2412 8.4566 9.88315 8.09861C9.52515 7.74061 9.52515 7.16021 9.88315 6.80227L13.9358 2.74962H10.9635C10.4572 2.74962 10.0468 2.33922 10.0468 1.83297Z" fill="#007AFF"/>
</svg>
