<svg width="101" height="56" viewBox="0 0 101 56" fill="none" xmlns="http://www.w3.org/2000/svg">
<path d="M12.8016 44.2027L12.6091 44.147C12.2209 44.0346 3.09766 41.3066 3.09766 33.9486C3.09766 30.8186 5.75532 28.272 9.02203 28.272C10.3942 28.2645 11.7278 28.7262 12.8016 29.5805C13.8753 28.726 15.2089 28.2642 16.5811 28.2716C19.8481 28.2716 22.5055 30.8182 22.5055 33.9481C22.5055 41.3066 13.3823 44.0342 12.994 44.1466L12.8016 44.2027Z" fill="#EA8668"/>
<path d="M21.4694 30.7461C21.1013 32.4048 20.4049 33.973 19.4212 35.3583C18.4375 36.7436 17.1864 37.9179 15.7417 38.8121C14.2971 39.7063 12.688 40.3023 11.0094 40.5649C9.33073 40.8274 7.61652 40.7513 5.96777 40.341C8.6785 42.9738 12.3666 44.0769 12.6105 44.1475L12.8029 44.2032L12.9953 44.1475C13.3836 44.0352 22.5068 41.3072 22.5068 33.9491C22.5057 32.799 22.1428 31.6784 21.4694 30.7461Z" fill="#E57055"/>
<path d="M7.96099 34.4952C9.10658 34.4952 10.0353 33.5665 10.0353 32.4209C10.0353 31.2754 9.10658 30.3467 7.96099 30.3467C6.8154 30.3467 5.88672 31.2754 5.88672 32.4209C5.88672 33.5665 6.8154 34.4952 7.96099 34.4952Z" fill="#FFD0C2"/>
<path d="M10.3809 37.2608C10.9537 37.2608 11.418 36.7964 11.418 36.2237C11.418 35.6509 10.9537 35.1865 10.3809 35.1865C9.80809 35.1865 9.34375 35.6509 9.34375 36.2237C9.34375 36.7964 9.80809 37.2608 10.3809 37.2608Z" fill="#FFD0C2"/>
<path d="M77.1555 9.63978L61.0884 10.0017L60.9492 3.70864C60.9492 2.40312 62.4968 0.729833 62.4968 0.729833C62.9081 0.546191 63.3535 0.451561 63.8039 0.452151H74.7151C75.5656 0.452151 76.3813 0.790016 76.9827 1.39142C77.5841 1.99282 77.922 2.8085 77.922 3.65901V5.02972L77.1555 9.63978Z" fill="#F74F73"/>
<path d="M77.9205 5.02665C76.2265 5.54835 73.4727 6.07745 69.258 6.07745C64.1246 6.07745 62.7763 3.05077 62.4963 0.730469C61.9306 0.982566 61.45 1.39315 61.1128 1.91257C60.7755 2.43198 60.5959 3.03799 60.5957 3.65731V10.8517H77.9205V5.02665Z" fill="#CC3B5E"/>
<path d="M55.7354 12.1727C54.7913 11.5615 53.7176 11.1789 52.5997 11.0554C51.4818 10.932 50.3506 11.0709 49.2958 11.4614C48.2411 11.8518 47.292 12.4828 46.5239 13.3044C45.7558 14.126 45.19 15.1154 44.8714 16.194C44.5528 17.2726 44.4902 18.4106 44.6886 19.5177C44.8869 20.6247 45.3408 21.6702 46.0141 22.5711C46.6874 23.4719 47.5616 24.2033 48.5671 24.7071C49.5727 25.2108 50.6819 25.4731 51.8065 25.473H60.2643V14.7263L55.7354 12.1727Z" fill="#87A574"/>
<path d="M58.0232 10.6518C58.0845 10.3477 58.2068 10.0592 58.3825 9.8036C58.5583 9.54798 58.784 9.33059 59.046 9.16449C59.308 8.9984 59.601 8.88704 59.9071 8.83713C60.2133 8.78722 60.5264 8.79978 60.8276 8.87406C64.4824 9.72989 68.2241 10.1588 71.9778 10.1523C75.7193 10.1643 79.4408 9.60533 83.0137 8.4948C83.264 8.4124 83.5295 8.38706 83.7909 8.42065C84.0522 8.45424 84.3027 8.54591 84.524 8.68892C84.7453 8.83194 84.9318 9.02267 85.0697 9.24714C85.2077 9.47161 85.2937 9.72412 85.3214 9.98615C85.4553 11.4104 85.6102 13.3176 85.6804 15.1325C85.6804 15.1325 84.7563 21.3643 79.2367 20.9255L59.8414 21.0004L58.3042 18.8988C58.1962 17.958 57.6056 15.4629 57.6056 15.4629C57.601 13.85 57.7407 12.2399 58.0232 10.6518Z" fill="#7AAEED"/>
<path d="M50.3623 21.6668C50.2086 21.6669 50.0553 21.6517 49.9046 21.6215C47.8624 21.2146 46.7143 19.6063 47.0472 17.6193C47.1448 17.0362 47.3563 16.4781 47.6695 15.9767C47.9828 15.4753 48.3918 15.0405 48.8731 14.6972C49.3544 14.3539 49.8986 14.1087 50.4746 13.9757C51.0507 13.8427 51.6473 13.8245 52.2304 13.9221C53.6823 14.1651 54.8551 14.9059 55.532 16.0079C56.2801 17.2253 56.3927 18.7729 55.8582 20.4835C55.8315 20.5689 55.7883 20.6482 55.731 20.7168C55.6736 20.7855 55.6033 20.8422 55.5241 20.8837C55.4449 20.9252 55.3582 20.9507 55.2692 20.9587C55.1801 20.9668 55.0903 20.9572 55.0049 20.9305C54.9195 20.9038 54.8402 20.8606 54.7716 20.8033C54.7029 20.7459 54.6462 20.6756 54.6047 20.5964C54.5632 20.5172 54.5377 20.4305 54.5297 20.3415C54.5216 20.2524 54.5312 20.1626 54.5579 20.0772C54.9716 18.754 54.9072 17.5927 54.3715 16.7209C53.8969 15.9484 53.0786 15.445 52.0054 15.2653C51.1842 15.128 50.342 15.3224 49.6641 15.8059C48.9862 16.2895 48.5282 17.0224 48.3907 17.8437C48.179 19.1085 48.8447 20.0204 50.171 20.2848C50.7762 20.407 51.3892 19.8884 51.6087 19.3397C51.7161 19.1256 51.7359 18.8781 51.6637 18.6498C51.5915 18.4214 51.4331 18.2301 51.2222 18.1167C51.1466 18.0689 51.0812 18.0067 51.0297 17.9336C50.9781 17.8605 50.9415 17.7779 50.9218 17.6907C50.8822 17.5144 50.9141 17.3297 51.0107 17.177C51.1073 17.0244 51.2605 16.9163 51.4367 16.8766C51.613 16.837 51.7977 16.8689 51.9504 16.9655C52.4292 17.2502 52.7874 17.7002 52.9574 18.2306C53.1275 18.7611 53.0976 19.3354 52.8735 19.8454C52.4968 20.7882 51.5238 21.6668 50.3623 21.6668Z" fill="#526D3A"/>
<path d="M85.6047 19.2616C85.7394 18.2017 85.7409 16.7002 85.6812 15.1299C81.7127 17.4767 76.5998 17.4774 76.5998 17.4774H61.8802C59.5235 17.4774 58.2577 16.3877 57.6062 15.4611C57.5979 16.7175 57.6615 17.9734 57.7967 19.2225C58.0748 21.6473 59.7037 21.4603 59.7037 21.4603H79.4064C84.925 21.8995 85.6047 19.2616 85.6047 19.2616Z" fill="#497FCE"/>
<path d="M67.927 8.27051C68.3418 8.27051 68.7395 8.43526 69.0328 8.72852C69.326 9.02177 69.4908 9.41952 69.4908 9.83424V21.6459H66.3633V9.83424C66.3633 9.62889 66.4037 9.42555 66.4823 9.23583C66.5609 9.04611 66.6761 8.87372 66.8213 8.72852C66.9665 8.58331 67.1389 8.46812 67.3286 8.38954C67.5183 8.31095 67.7217 8.27051 67.927 8.27051Z" fill="#4A4A60"/>
<path d="M76.3548 8.27051C76.7695 8.27051 77.1672 8.43526 77.4605 8.72852C77.7538 9.02177 77.9185 9.41952 77.9185 9.83424V21.6459H74.791V9.83424C74.791 9.62889 74.8315 9.42555 74.91 9.23583C74.9886 9.04611 75.1038 8.87372 75.249 8.72852C75.3942 8.58331 75.5666 8.46812 75.7563 8.38954C75.9461 8.31095 76.1494 8.27051 76.3548 8.27051Z" fill="#4A4A60"/>
<path d="M47.9303 27.4373L45.8333 27.0205C44.2976 26.7152 42.8053 27.7127 42.5 29.2483L40.3772 39.9279C40.0719 41.4636 41.0694 42.9559 42.605 43.2612L44.702 43.678C46.2377 43.9833 47.73 42.9858 48.0353 41.4501L50.1582 30.7706C50.4634 29.2349 49.466 27.7426 47.9303 27.4373Z" fill="#4A4A60"/>
<path d="M100.981 42.479V38.4648L96.1976 32.2211L90.9312 32.0771C90.2825 32.0543 89.6511 31.8624 89.0993 31.5206C88.5476 31.1788 88.0947 30.6987 87.7854 30.1281C86.664 28.0259 85.3844 26.012 83.9578 24.1037C83.2827 23.2215 82.4137 22.5064 81.418 22.0138C80.4223 21.5211 79.3266 21.2642 78.2158 21.2627H60.7478C59.7516 21.2617 58.7652 21.4586 57.8457 21.8419C56.9262 22.2252 56.0921 22.7873 55.3916 23.4956C53.026 25.8833 51.0381 28.6176 49.4966 31.6044L46.8984 39.5494C46.6622 41.0835 46.5729 42.6366 46.6319 44.1877L49.6525 45.9974H99.1761L100.981 42.479Z" fill="#FFB655"/>
<path d="M96.1973 32.2207V35.274C96.1972 36.073 96.5049 36.8413 97.0564 37.4194C97.6079 37.9975 98.3609 38.341 99.159 38.3785L100.98 38.4644C100.98 38.4644 101.553 32.2207 96.1973 32.2207Z" fill="#FCDDBC"/>
<path d="M49.4976 31.6045C49.7941 31.7202 50.0786 31.8647 50.347 32.0359C50.8391 32.3482 51.2348 32.791 51.49 33.315C51.7452 33.839 51.8498 34.4236 51.7922 35.0036L51.642 36.543C51.593 37.0463 51.437 37.5333 51.1846 37.9714C50.9321 38.4095 50.589 38.7887 50.1781 39.0835C49.7673 39.3782 49.2982 39.5818 48.8023 39.6807C48.3064 39.7795 47.7951 39.7712 47.3026 39.6565C47.17 39.6257 47.0356 39.5901 46.8994 39.5497C46.8994 39.5497 47.7247 34.6415 49.4976 31.6045Z" fill="#F74F73"/>
<path d="M59.6357 24.9395C59.3142 25.1175 59.0149 25.333 58.7441 25.5816C57.3008 26.9436 56.1323 28.57 55.3021 30.3724C55.1866 30.6175 55.1347 30.8878 55.1515 31.1582C55.1683 31.4286 55.2531 31.6904 55.3981 31.9193C55.5431 32.1482 55.7436 32.3367 55.981 32.4674C56.2183 32.5981 56.4848 32.6667 56.7557 32.6669H58.2409C58.6106 32.6669 58.9652 32.52 59.2267 32.2586C59.4882 31.9971 59.6351 31.6426 59.6351 31.2728L59.6357 24.9395Z" fill="#4A4A60"/>
<path d="M69.0525 24.3389H63.8236C63.1266 24.3389 62.5615 24.9039 62.5615 25.601V31.4062C62.5615 32.1033 63.1266 32.6683 63.8236 32.6683H69.0525C69.7496 32.6683 70.3147 32.1033 70.3147 31.4062V25.601C70.3147 24.9039 69.7496 24.3389 69.0525 24.3389Z" fill="#4A4A60"/>
<path d="M83.2707 30.4823C82.6305 28.8001 81.7876 27.2022 80.7604 25.7242C80.4507 25.2946 80.0432 24.9449 79.5715 24.704C79.0999 24.4631 78.5776 24.3379 78.048 24.3389H74.6251C74.2574 24.3389 73.9046 24.485 73.6446 24.745C73.3845 25.005 73.2383 25.3577 73.2383 25.7255V31.2815C73.2383 31.6493 73.3844 32.0021 73.6445 32.2622C73.9046 32.5222 74.2573 32.6684 74.6251 32.6684H81.7712C82.0323 32.6688 82.2896 32.6055 82.5208 32.4839C82.752 32.3624 82.95 32.1864 83.0977 31.971C83.2455 31.7556 83.3384 31.5075 83.3686 31.2481C83.3987 30.9887 83.3651 30.7258 83.2707 30.4823Z" fill="#4A4A60"/>
<path d="M64.538 36.6043H62.561C62.3803 36.6043 62.2071 36.5326 62.0794 36.4048C61.9516 36.2771 61.8799 36.1039 61.8799 35.9233C61.8799 35.7426 61.9516 35.5694 62.0794 35.4417C62.2071 35.3139 62.3803 35.2422 62.561 35.2422H64.538C64.7186 35.2422 64.8919 35.3139 65.0196 35.4417C65.1473 35.5694 65.2191 35.7426 65.2191 35.9233C65.2191 36.1039 65.1473 36.2771 65.0196 36.4048C64.8919 36.5326 64.7186 36.6043 64.538 36.6043Z" fill="#E87B31"/>
<path d="M75.2189 36.6043H73.2416C73.061 36.6043 72.8878 36.5326 72.76 36.4048C72.6323 36.2771 72.5605 36.1039 72.5605 35.9233C72.5605 35.7426 72.6323 35.5694 72.76 35.4417C72.8878 35.3139 73.061 35.2422 73.2416 35.2422H75.2189C75.3995 35.2422 75.5727 35.3139 75.7005 35.4417C75.8282 35.5694 75.8999 35.7426 75.8999 35.9233C75.8999 36.1039 75.8282 36.2771 75.7005 36.4048C75.5727 36.5326 75.3995 36.6043 75.2189 36.6043Z" fill="#E87B31"/>
<path d="M97.7258 47.838C98.5893 47.8379 99.4174 47.4948 100.028 46.8843C100.638 46.2737 100.982 45.4455 100.982 44.5821V42.4805C99.3987 44.0354 97.2726 44.1898 97.2726 44.1898H46.6338C46.641 44.3781 46.649 44.5669 46.6604 44.7572C46.7075 45.5887 47.0704 46.3707 47.675 46.9435C48.2795 47.5163 49.0801 47.8365 49.9129 47.8387L97.7258 47.838Z" fill="#E87B31"/>
<path d="M58.7099 55.9578C63.1481 55.9578 66.746 52.3599 66.746 47.9218C66.746 43.4836 63.1481 39.8857 58.7099 39.8857C54.2717 39.8857 50.6738 43.4836 50.6738 47.9218C50.6738 52.3599 54.2717 55.9578 58.7099 55.9578Z" fill="#4A4A60"/>
<path d="M58.7092 51.6547C60.7713 51.6547 62.4429 49.9831 62.4429 47.9211C62.4429 45.8591 60.7713 44.1875 58.7092 44.1875C56.6472 44.1875 54.9756 45.8591 54.9756 47.9211C54.9756 49.9831 56.6472 51.6547 58.7092 51.6547Z" fill="white"/>
<path d="M88.539 55.9578C92.9772 55.9578 96.5751 52.3599 96.5751 47.9218C96.5751 43.4836 92.9772 39.8857 88.539 39.8857C84.1008 39.8857 80.5029 43.4836 80.5029 47.9218C80.5029 52.3599 84.1008 55.9578 88.539 55.9578Z" fill="#4A4A60"/>
<path d="M88.5383 51.6547C90.6004 51.6547 92.272 49.9831 92.272 47.9211C92.272 45.8591 90.6004 44.1875 88.5383 44.1875C86.4763 44.1875 84.8047 45.8591 84.8047 47.9211C84.8047 49.9831 86.4763 51.6547 88.5383 51.6547Z" fill="white"/>
<path d="M13 46C31.4242 40.1231 24.0003 21.5001 12.5761 27.9001C1.99995 22.4999 -6.50008 38.4998 12.4997 47.4999C16.7886 49.5316 24.1145 49.1266 28.7816 48.2969" stroke="#EA8668" stroke-width="1.03713" stroke-linecap="round"/>
<ellipse cx="30.6557" cy="47.5229" rx="0.581497" ry="0.581493" fill="#EA8668"/>
<ellipse cx="33.4975" cy="46.7475" rx="0.581497" ry="0.581493" fill="#EA8668"/>
<ellipse cx="35.9545" cy="45.8432" rx="0.581497" ry="0.581493" fill="#EA8668"/>
</svg>
