<svg width="28" height="26" viewBox="0 0 28 26" fill="none" xmlns="http://www.w3.org/2000/svg">
<path d="M13.5487 1.10669C13.7299 0.727136 14.2701 0.727132 14.4513 1.1067L17.6352 7.77922C17.8539 8.23748 18.2896 8.55401 18.793 8.62037L26.1228 9.58658C26.5398 9.64154 26.7067 10.1554 26.4017 10.4449L21.0397 15.535C20.6714 15.8846 20.505 16.3967 20.5974 16.896L21.9436 24.1657C22.0201 24.5792 21.5831 24.8968 21.2134 24.6961L14.7155 21.1694C14.2693 20.9272 13.7307 20.9272 13.2845 21.1695L6.78658 24.6961C6.41695 24.8968 5.97986 24.5792 6.05643 24.1657L7.40256 16.896C7.49501 16.3967 7.3286 15.8846 6.96034 15.535L1.59829 10.4449C1.29328 10.1554 1.46023 9.64154 1.87719 9.58658L9.20704 8.62037C9.71044 8.55401 10.1461 8.23748 10.3648 7.77922L13.5487 1.10669Z" fill="url(#paint0_linear_295_249)" stroke="#5A5A5A"/>
<defs>
<linearGradient id="paint0_linear_295_249" x1="12.6714" y1="1.25" x2="15.7202" y2="28.8456" gradientUnits="userSpaceOnUse">
<stop offset="0.260417" stop-color="white"/>
<stop offset="1" stop-color="#E3E3E3"/>
</linearGradient>
</defs>
</svg>
