<svg width="60" height="60" viewBox="0 0 60 60" fill="none" xmlns="http://www.w3.org/2000/svg">
<g clip-path="url(#clip0_584_11947)">
<path d="M47.6953 0C40.9105 0 35.3906 5.51988 35.3906 12.3047C35.3906 19.0895 40.9105 24.6094 47.6953 24.6094C54.4801 24.6094 60 19.0895 60 12.3047C60 5.51988 54.4801 0 47.6953 0ZM47.6953 3.51562C49.4841 3.51562 51.1488 4.05398 52.5387 4.97555L40.3662 17.148C39.4446 15.7582 38.9062 14.0934 38.9062 12.3047C38.9062 7.4584 42.849 3.51562 47.6953 3.51562ZM47.6953 21.0938C45.9066 21.0938 44.2418 20.5554 42.852 19.6338L55.0245 7.46133C55.946 8.85117 56.4844 10.5159 56.4844 12.3047C56.4844 17.151 52.5416 21.0938 47.6953 21.0938Z" fill="#FF7D47"/>
<path d="M8.20312 1.75781H11.7188V19.5703H8.20312V1.75781Z" fill="#E2DFF4"/>
<path d="M19.9219 1.75781H23.4375V19.5703H19.9219V1.75781Z" fill="#D5D3EA"/>
<path d="M24.0234 3.51562H7.61719C6.64641 3.51562 5.85938 2.72859 5.85938 1.75781C5.85938 0.787031 6.64641 0 7.61719 0H24.0234C24.9942 0 25.7812 0.787031 25.7812 1.75781C25.7812 2.72859 24.9942 3.51562 24.0234 3.51562Z" fill="#E2DFF4"/>
<path d="M6.44531 60C5.47453 60 4.6875 59.213 4.6875 58.2422V54.7266C4.6875 53.7558 5.47453 52.9688 6.44531 52.9688C7.41609 52.9688 8.20312 53.7558 8.20312 54.7266V58.2422C8.20312 59.213 7.41609 60 6.44531 60Z" fill="#5F55AF"/>
<path d="M56.4844 43.0078H38.6719C36.7302 43.0078 35.1562 41.4339 35.1562 39.4922V34.2188C35.1562 32.2771 36.7302 30.7031 38.6719 30.7031H56.4844C58.4261 30.7031 60 32.2771 60 34.2188V39.4922C60 41.4339 58.4261 43.0078 56.4844 43.0078Z" fill="#FFF16B"/>
<path d="M56.4844 43.0078H47.5781V30.7031H56.4844C58.4261 30.7031 60 32.2771 60 34.2188V39.4922C60 41.4339 58.4261 43.0078 56.4844 43.0078Z" fill="#FFC178"/>
<path d="M26.3672 56.4844H5.27344C2.36566 56.4844 0 54.1187 0 51.2109V23.0859C0 20.1782 2.36566 17.8125 5.27344 17.8125H26.3672C29.275 17.8125 31.6406 20.1782 31.6406 23.0859V51.2109C31.6406 54.1187 29.275 56.4844 26.3672 56.4844Z" fill="#FF7D47"/>
<path d="M8.78906 49.4531C7.81828 49.4531 7.03125 48.6661 7.03125 47.6953V26.6016C7.03125 25.6308 7.81828 24.8438 8.78906 24.8438C9.75984 24.8438 10.5469 25.6308 10.5469 26.6016V47.6953C10.5469 48.6661 9.75984 49.4531 8.78906 49.4531Z" fill="#FF405C"/>
<path d="M15.8203 49.4531C14.8495 49.4531 14.0625 48.6661 14.0625 47.6953V26.6016C14.0625 25.6308 14.8495 24.8438 15.8203 24.8438C16.7911 24.8438 17.5781 25.6308 17.5781 26.6016V47.6953C17.5781 48.6661 16.7911 49.4531 15.8203 49.4531Z" fill="#FF405C"/>
<path d="M22.8516 49.4531C21.8808 49.4531 21.0938 48.6661 21.0938 47.6953V26.6016C21.0938 25.6308 21.8808 24.8438 22.8516 24.8438C23.8223 24.8438 24.6094 25.6308 24.6094 26.6016V47.6953C24.6094 48.6661 23.8223 49.4531 22.8516 49.4531Z" fill="#C30047"/>
<path d="M55.3125 43.0078H51.2109L40.7812 44.8828L29.8828 43.0078H25.7812C23.1925 43.0078 21.0938 45.1065 21.0938 47.6953V55.3125C21.0938 57.9013 23.1925 60 25.7812 60H29.8828L39.9609 59.1797L51.2109 60H55.3125C57.9013 60 60 57.9013 60 55.3125V47.6953C60 45.1065 57.9013 43.0078 55.3125 43.0078Z" fill="#6AA9FF"/>
<path d="M55.3125 43.0078H51.2109L40.7812 44.8828L40.5469 44.8425V59.2225L51.2109 60H55.3125C57.9013 60 60 57.9013 60 55.3125V47.6953C60 45.1065 57.9013 43.0078 55.3125 43.0078Z" fill="#4895FF"/>
<path d="M29.8828 43.0078H51.2109V60H29.8828V43.0078Z" fill="#9EE2F8"/>
<path d="M40.5469 43.0078H51.2109V60H40.5469V43.0078Z" fill="#6AA9FF"/>
</g>
<defs>
<clipPath id="clip0_584_11947">
<rect width="60" height="60" fill="white"/>
</clipPath>
</defs>
</svg>
