<svg width="20" height="20" viewBox="0 0 20 20" fill="none" xmlns="http://www.w3.org/2000/svg">
<path d="M5.00058 11.666C5.22159 11.666 5.43355 11.7538 5.58983 11.9101C5.74611 12.0664 5.8339 12.2783 5.8339 12.4994C5.8339 12.7204 5.74611 12.9323 5.58983 13.0886C5.43355 13.2449 5.22159 13.3327 5.00058 13.3327C4.45342 13.3327 3.91161 13.2249 3.4061 13.0155C2.90058 12.8061 2.44126 12.4992 2.05435 12.1123C1.27296 11.3309 0.833984 10.2711 0.833984 9.16602C0.833984 8.06095 1.27296 7.00114 2.05435 6.21974C2.83574 5.43834 3.89553 4.99935 5.00058 4.99935C5.8339 3.04102 7.75054 1.66602 10.0005 1.66602C12.8588 1.66602 15.2004 3.88268 15.4171 6.69102L15.8337 6.66602C16.7178 6.66602 17.5656 7.01721 18.1907 7.64233C18.8158 8.26745 19.167 9.1153 19.167 9.99935C19.167 10.8834 18.8158 11.7313 18.1907 12.3564C17.5656 12.9815 16.7178 13.3327 15.8337 13.3327H15.0004C14.7794 13.3327 14.5675 13.2449 14.4112 13.0886C14.2549 12.9323 14.1671 12.7204 14.1671 12.4994C14.1671 12.2783 14.2549 12.0664 14.4112 11.9101C14.5675 11.7538 14.7794 11.666 15.0004 11.666H15.8337C16.2758 11.666 16.6997 11.4904 17.0122 11.1779C17.3248 10.8653 17.5004 10.4414 17.5004 9.99935C17.5004 9.55732 17.3248 9.1334 17.0122 8.82084C16.6997 8.50828 16.2758 8.33268 15.8337 8.33268H14.1671V7.49935C14.1671 6.39428 13.7281 5.33447 12.9467 4.55307C12.1653 3.77167 11.1056 3.33268 10.0005 3.33268C7.9172 3.33268 6.2089 4.84935 5.8839 6.82435C5.60891 6.72435 5.30891 6.66602 5.00058 6.66602C4.33755 6.66602 3.70168 6.92941 3.23285 7.39825C2.76401 7.86709 2.50062 8.50298 2.50062 9.16602C2.50062 9.82906 2.76401 10.4649 3.23285 10.9338C3.70168 11.4026 4.33755 11.666 5.00058 11.666ZM8.33386 14.3041C8.77588 14.3041 9.1998 15.1749 9.51236 15.4875C9.82491 15.8001 10.0005 16.224 10.0005 16.666C10.0005 17.108 9.82491 17.532 9.51236 17.8445C9.1998 18.1571 8.77588 18.3327 8.33386 18.3327C7.89184 18.3327 7.46793 18.1571 7.15537 17.8445C6.84282 17.532 6.66722 17.108 6.66722 16.666C6.66722 16.224 6.84282 15.8001 7.15537 15.4875C7.46793 15.1749 7.89184 14.3041 8.33386 14.3041ZM12 12.9998C12.3315 12.9998 12.7333 13.4644 12.9677 13.6988C13.2021 13.9332 13.3338 14.2512 13.3338 14.5827C13.3338 14.9142 13.2021 15.2321 12.9677 15.4666C12.7333 15.701 12.4153 15.8327 12.0838 15.8327C11.7523 15.8327 11.4344 15.701 11.1999 15.4666C10.9655 15.2321 10.8338 14.9142 10.8338 14.5827C10.8338 14.2512 10.9655 13.9332 11.1999 13.6988C11.4344 13.4644 11.6685 12.9998 12 12.9998ZM8.75052 9.49976C9.08204 9.49976 9.39998 10.131 9.63439 10.3655C9.86881 10.5999 10.0005 10.9178 10.0005 11.2494C10.0005 11.5809 9.86881 11.8988 9.63439 12.1332C9.39998 12.3677 9.08204 12.4994 8.75052 12.4994C8.41901 12.4994 8.10107 12.3677 7.86665 12.1332C7.63224 11.8988 7.50054 11.5809 7.50054 11.2494C7.50054 10.9178 7.63224 10.5999 7.86665 10.3655C8.10107 10.131 8.41901 9.49976 8.75052 9.49976Z" fill="url(#paint0_linear_552_3138)"/>
<defs>
<linearGradient id="paint0_linear_552_3138" x1="10.0005" y1="1.66602" x2="10.0005" y2="18.3327" gradientUnits="userSpaceOnUse">
<stop stop-color="#3C6FD1"/>
<stop offset="0.0001" stop-color="#3C6FD1"/>
<stop offset="1" stop-color="#7CA9FF"/>
</linearGradient>
</defs>
</svg>
