<svg width="36" height="36" viewBox="0 0 36 36" fill="none" xmlns="http://www.w3.org/2000/svg">
<g clip-path="url(#clip0_579_7140)">
<path d="M35.2658 14.9825C31.9391 13.6517 30.6577 11.4003 29.6277 9.59161C28.8079 8.15168 28.0333 6.79219 26.4555 6.5058C24.8113 6.20374 22.6834 7.22095 19.0541 10.0725V6.13385C20.2791 5.697 21.1635 4.53727 21.1635 3.16406C21.1635 1.41933 19.7441 0 17.9994 0C16.2547 0 14.8353 1.41933 14.8353 3.16406C14.8353 4.53727 15.7197 5.697 16.9447 6.13385V10.0717C12.9351 6.91917 11.5845 6.13111 9.54332 6.5058C7.96544 6.79212 7.19088 8.15168 6.37104 9.59161C5.3411 11.4003 4.05979 13.6517 0.732958 14.9825C0.26327 15.1699 -0.00658916 15.6643 0.0881921 16.1608C0.185083 16.6572 0.619755 17.0156 1.12439 17.0156H3.23376C3.27911 17.0156 7.83157 16.9497 10.1706 11.3364C10.3951 10.7988 11.0131 10.5536 11.5497 10.7679C12.0873 10.9924 12.3418 11.6104 12.1172 12.148C11.1576 14.451 9.87548 15.982 8.58412 17.0157H10.9603C11.9419 16.1793 12.7259 15.1157 12.7259 13.8516C12.7259 13.2686 13.1977 12.7969 13.7806 12.7969C14.3636 12.7969 14.8353 13.2686 14.8353 13.8516C14.8353 15.0632 14.4232 16.1146 13.8015 17.0156H16.9447V19.125H13.7806C12.0359 19.125 10.6166 20.5443 10.6166 22.2891C10.6166 24.0338 12.0359 25.4531 13.7806 25.4531H16.9447V27.5625H15.89C14.1453 27.5625 12.7259 28.9818 12.7259 30.7266C12.7259 32.4713 14.1453 33.8906 15.89 33.8906H16.9447V34.9453C16.9447 35.5283 17.4164 36 17.9994 36C18.5823 36 19.0541 35.5283 19.0541 34.9453V33.8906H20.1088C20.6917 33.8906 21.1635 33.4189 21.1635 32.8359C21.1635 32.253 20.6917 31.7812 20.1088 31.7812H19.0541V29.6719H20.1088C21.8535 29.6719 23.2728 28.2525 23.2728 26.5078C23.2728 24.7631 21.8535 23.3438 20.1088 23.3438H19.0541V21.2344H22.2181C23.4106 21.2344 24.4385 20.5635 24.9777 19.5868C24.3859 19.2045 23.787 18.7548 23.2406 18.2289C23.1609 18.7318 22.7427 19.125 22.2181 19.125H19.0541V17.0156H22.1973C21.5756 16.1146 21.1635 15.0632 21.1635 13.8516C21.1635 13.2686 21.6352 12.7969 22.2181 12.7969C22.8011 12.7969 23.2728 13.2686 23.2728 13.8516C23.2728 15.1157 24.0569 16.1793 25.0384 17.0156H27.4146C26.1233 15.9819 24.8411 14.451 23.8815 12.148C23.657 11.6104 23.9114 10.9923 24.449 10.7678C24.9856 10.5536 25.6036 10.7987 25.8281 11.3363C28.1672 16.9497 32.7197 17.0156 32.765 17.0156H34.8744C35.3791 17.0156 35.8137 16.6572 35.9105 16.1608C36.0053 15.6643 35.7355 15.1699 35.2658 14.9825ZM16.9448 31.7812H15.8901C15.3092 31.7812 14.8354 31.3075 14.8354 30.7266C14.8354 30.1456 15.3092 29.6719 15.8901 29.6719H16.9448V31.7812ZM16.9448 23.3438H13.7807C13.1998 23.3438 12.726 22.87 12.726 22.2891C12.726 21.7081 13.1998 21.2344 13.7807 21.2344H16.9448V23.3438ZM20.1088 25.4531C20.6897 25.4531 21.1635 25.9269 21.1635 26.5078C21.1635 27.0887 20.6897 27.5625 20.1088 27.5625H19.0541V25.4531H20.1088Z" fill="#8E8E93"/>
</g>
<defs>
<clipPath id="clip0_579_7140">
<rect width="36" height="36" fill="white"/>
</clipPath>
</defs>
</svg>
