<svg width="16" height="16" viewBox="0 0 16 16" fill="none" xmlns="http://www.w3.org/2000/svg">
<rect width="16" height="16" rx="8" fill="url(#paint0_linear_628_9547)"/>
<path d="M3.61242 9.65767C3.40966 8.33964 3.20689 7.02163 3.00412 5.70359C2.95916 5.41142 3.29159 5.21215 3.52806 5.38952C4.15979 5.86333 4.79149 6.33711 5.42322 6.81093C5.63122 6.96693 5.92755 6.91616 6.07175 6.69982L7.64952 4.33309C7.81625 4.08298 8.18372 4.08298 8.35045 4.33309L9.92822 6.69982C10.0724 6.91616 10.3688 6.9669 10.5768 6.81093C11.2085 6.33711 11.8402 5.86333 12.4719 5.38952C12.7084 5.21215 13.0408 5.41142 12.9959 5.70359C12.7931 7.02163 12.5903 8.33964 12.3876 9.65767H3.61242Z" fill="#F2F2F7"/>
<path d="M11.9309 11.8512H4.07078C3.81811 11.8512 3.61328 11.6464 3.61328 11.3937V10.3887H12.3884V11.3937C12.3884 11.6464 12.1836 11.8512 11.9309 11.8512Z" fill="#F2F2F7"/>
<defs>
<linearGradient id="paint0_linear_628_9547" x1="0" y1="0" x2="16" y2="16" gradientUnits="userSpaceOnUse">
<stop stop-color="#FFE985"/>
<stop offset="1" stop-color="#FA742B"/>
</linearGradient>
</defs>
</svg>
