<svg width="34" height="30" viewBox="0 0 34 30" fill="none" xmlns="http://www.w3.org/2000/svg">
<path d="M8.00207 17.9993C8.3999 17.9993 8.78143 18.1574 9.06273 18.4387C9.34404 18.72 9.50207 19.1015 9.50207 19.4993C9.50207 19.8972 9.34404 20.2787 9.06273 20.56C8.78143 20.8413 8.3999 20.9994 8.00207 20.9994C7.01716 20.9994 6.04189 20.8054 5.13195 20.4284C4.22201 20.0515 3.39521 19.4991 2.69877 18.8026C1.29225 17.3961 0.502075 15.4884 0.502075 13.4992C0.502075 11.5101 1.29225 9.6024 2.69877 8.19585C4.1053 6.78931 6.01295 5.99912 8.00207 5.99912C9.50207 2.47406 12.9521 -0.000976562 17.0021 -0.000976562C22.1471 -0.000976562 26.3621 3.98909 26.7521 9.04417L27.5021 8.99917C29.0934 8.99917 30.6195 9.63132 31.7447 10.7566C32.8699 11.8818 33.5021 13.4079 33.5021 14.9993C33.5021 16.5906 32.8699 18.1167 31.7447 19.242C30.6195 20.3672 29.0934 20.9994 27.5021 20.9994H26.0021C25.6042 20.9994 25.2227 20.8413 24.9414 20.56C24.6601 20.2787 24.5021 19.8972 24.5021 19.4993C24.5021 19.1015 24.6601 18.72 24.9414 18.4387C25.2227 18.1574 25.6042 17.9993 26.0021 17.9993H27.5021C28.2977 17.9993 29.0608 17.6832 29.6234 17.1206C30.186 16.558 30.5021 15.7949 30.5021 14.9993C30.5021 14.2036 30.186 13.4405 29.6234 12.8779C29.0608 12.3153 28.2977 11.9992 27.5021 11.9992H24.5021V10.4992C24.5021 8.51004 23.7119 6.60235 22.3054 5.19581C20.8989 3.78926 18.9912 2.99907 17.0021 2.99907C13.2521 2.99907 10.1771 5.72911 9.59207 9.28417C9.09707 9.10417 8.55707 8.99917 8.00207 8.99917C6.8086 8.99917 5.66401 9.47328 4.82009 10.3172C3.97618 11.1611 3.50207 12.3057 3.50207 13.4992C3.50207 14.6927 3.97618 15.8373 4.82009 16.6813C5.66401 17.5252 6.8086 17.9993 8.00207 17.9993ZM14.0021 22.748C14.7977 22.748 15.5608 24.3155 16.1234 24.8781C16.686 25.4407 17.0021 26.2038 17.0021 26.9995C17.0021 27.7951 16.686 28.5582 16.1234 29.1208C15.5608 29.6834 14.7977 29.9995 14.0021 29.9995C13.2064 29.9995 12.4434 29.6834 11.8808 29.1208C11.3181 28.5582 11.0021 27.7951 11.0021 26.9995C11.0021 26.2038 11.3181 25.4407 11.8808 24.8781C12.4434 24.3155 13.2064 22.748 14.0021 22.748ZM20.6012 20.4001C21.198 20.4001 21.9211 21.2364 22.3431 21.6584C22.765 22.0803 23.0021 22.6526 23.0021 23.2494C23.0021 23.8461 22.765 24.4184 22.3431 24.8404C21.9211 25.2624 21.3488 25.4994 20.7521 25.4994C20.1553 25.4994 19.583 25.2624 19.1611 24.8404C18.7391 24.4184 18.5021 23.8461 18.5021 23.2494C18.5021 22.6526 18.7391 22.0803 19.1611 21.6584C19.583 21.2364 20.0045 20.4001 20.6012 20.4001ZM14.7521 14.1C15.3488 14.1 15.9211 15.2363 16.3431 15.6583C16.765 16.0802 17.0021 16.6526 17.0021 17.2493C17.0021 17.846 16.765 18.4184 16.3431 18.8403C15.9211 19.2623 15.3488 19.4993 14.7521 19.4993C14.1553 19.4993 13.583 19.2623 13.1611 18.8403C12.7391 18.4184 12.5021 17.846 12.5021 17.2493C12.5021 16.6526 12.7391 16.0802 13.1611 15.6583C13.583 15.2363 14.1553 14.1 14.7521 14.1Z" fill="url(#paint0_linear_62_5785)"/>
<defs>
<linearGradient id="paint0_linear_62_5785" x1="17.0021" y1="-0.000976563" x2="17.0021" y2="29.9995" gradientUnits="userSpaceOnUse">
<stop stop-color="#FF8552"/>
<stop offset="1" stop-color="#FFBC9F"/>
</linearGradient>
</defs>
</svg>
