<svg width="24" height="24" viewBox="0 0 24 24" fill="none" xmlns="http://www.w3.org/2000/svg">
<path opacity="0.4" d="M20.41 6.95994V9.79994L7.39997 19.3399L4.76997 17.3699C4.11997 16.8799 3.58997 15.8299 3.58997 15.0199V6.95994C3.58997 5.83994 4.44997 4.59994 5.49997 4.20994L10.97 2.15994C11.54 1.94994 12.46 1.94994 13.03 2.15994L18.5 4.20994C19.55 4.59994 20.41 5.83994 20.41 6.95994Z" fill="#5888FE"/>
<path d="M20.4099 11.1699V15.0199C20.4099 15.8299 19.8799 16.8799 19.2299 17.3699L13.7599 21.4599C13.2799 21.8199 12.6399 21.9999 11.9999 21.9999C11.3599 21.9999 10.7199 21.8199 10.2399 21.4599L8.31995 20.0299L20.4099 11.1699Z" fill="#5888FE"/>
</svg>
