<svg width="36" height="36" viewBox="0 0 36 36" fill="none" xmlns="http://www.w3.org/2000/svg">
<g clip-path="url(#clip0_579_7092)">
<path d="M9.49219 0C8.90923 0 8.4375 0.471727 8.4375 1.05469V8.4375H6.32812V1.05469C6.32812 0.471727 5.8564 0 5.27344 0C4.69048 0 4.21875 0.471727 4.21875 1.05469V8.4375H2.10938V1.05469C2.10938 0.471727 1.63765 0 1.05469 0C0.471727 0 0 0.471727 0 1.05469C0 5.74334 0 6.91003 0 11.6016C0 13.3463 1.41933 14.8359 3.16406 14.8359H7.38281C9.12755 14.8359 10.5469 13.3463 10.5469 11.6016C10.5469 6.90841 10.5469 5.74594 10.5469 1.05469C10.5469 0.471727 10.0751 0 9.49219 0Z" fill="#8E8E93"/>
<path d="M25.4531 22.2188V12.0465C25.4531 12.0435 25.4536 12.0407 25.4536 12.0378C23.7127 9.86133 20.9975 8.4375 18 8.4375C16.0813 8.4375 14.1941 9.00541 12.6562 10.0397V11.6016C12.6562 13.7585 11.3513 15.6822 9.49219 16.4983V22.2574C11.0592 25.3481 14.304 27.4922 18 27.4922C21.1639 27.4922 24.0229 25.9213 25.7486 23.5346C25.5633 23.1327 25.4531 22.6896 25.4531 22.2188Z" fill="#8E8E93"/>
<path d="M28.6172 25.3817C28.1272 25.3817 27.6686 25.2602 27.2542 25.0605C25.131 27.8152 21.7388 29.6004 18 29.6004C14.6745 29.6004 11.6094 28.1861 9.49219 25.9369V31.4353C11.936 32.9815 14.8942 33.8895 18 33.8895C22.5906 33.8895 26.7819 31.852 29.6719 28.729V25.3817H28.6172Z" fill="#8E8E93"/>
<path d="M18 2.10938C16.148 2.10938 14.308 2.44399 12.6562 3.02878V7.59319C14.2615 6.77201 16.1261 6.32812 18 6.32812C20.9393 6.32812 23.6889 7.43576 25.7355 9.24398C26.0091 7.75463 26.4694 6.31617 27.1383 4.97784C24.5693 3.1758 21.3763 2.10938 18 2.10938Z" fill="#8E8E93"/>
<path d="M35.4428 0.124444C35.1018 -0.0588602 34.6847 -0.0382586 34.3602 0.176968C29.5501 3.38378 27.5625 7.52856 27.5625 12.0464V22.2186C27.5625 22.8016 28.0342 23.2733 28.6172 23.2733H31.7812V33.8905C31.7812 35.0553 32.7256 35.9999 33.8906 35.9999C35.0556 35.9999 36 35.0553 36 33.8905C36 17.0246 36 17.6034 36 1.05454C36 0.665218 35.7858 0.307819 35.4428 0.124444Z" fill="#8E8E93"/>
<path d="M3.16406 16.9453V33.8906C3.16406 35.0555 4.10843 36 5.27344 36C6.43845 36 7.38281 35.0555 7.38281 33.8906V16.9453H3.16406Z" fill="#8E8E93"/>
</g>
<defs>
<clipPath id="clip0_579_7092">
<rect width="36" height="36" fill="white"/>
</clipPath>
</defs>
</svg>
