<svg width="22" height="24" viewBox="0 0 22 24" fill="none" xmlns="http://www.w3.org/2000/svg">
<path d="M7.96575 3.85718L8.70289 1.95432C8.82721 1.63214 9.04593 1.35502 9.33041 1.15926C9.61488 0.963487 9.95185 0.858198 10.2972 0.857178H11.7029C12.0482 0.858198 12.3852 0.963487 12.6697 1.15926C12.9541 1.35502 13.1729 1.63214 13.2972 1.95432L14.0343 3.85718L16.5372 5.29718L18.56 4.98861C18.8969 4.94289 19.2397 4.99833 19.5449 5.1479C19.8502 5.29747 20.1041 5.53441 20.2743 5.82861L20.96 7.02861C21.1357 7.32749 21.2167 7.67263 21.1922 8.01847C21.1677 8.36431 21.039 8.6946 20.8229 8.96575L19.5715 10.56V13.44L20.8572 15.0343C21.0732 15.3055 21.202 15.6358 21.2265 15.9816C21.251 16.3274 21.17 16.6726 20.9943 16.9715L20.3086 18.1715C20.1383 18.4657 19.8845 18.7026 19.5792 18.8522C19.274 19.0017 18.9312 19.0572 18.5943 19.0115L16.5715 18.7029L14.0686 20.1429L13.3315 22.0457C13.2071 22.3679 12.9884 22.645 12.704 22.8408C12.4195 23.0366 12.0825 23.1419 11.7372 23.1429H10.2972C9.95185 23.1419 9.61488 23.0366 9.33041 22.8408C9.04593 22.645 8.82721 22.3679 8.70289 22.0457L7.96575 20.1429L5.46289 18.7029L3.44004 19.0115C3.10321 19.0572 2.76039 19.0017 2.45515 18.8522C2.14991 18.7026 1.89602 18.4657 1.72575 18.1715L1.04004 16.9715C0.864325 16.6726 0.783369 16.3274 0.807854 15.9816C0.832338 15.6358 0.961112 15.3055 1.17718 15.0343L2.42861 13.44V10.56L1.14289 8.96575C0.926826 8.6946 0.798053 8.36431 0.773568 8.01847C0.749084 7.67263 0.830039 7.32749 1.00575 7.02861L1.69147 5.82861C1.86173 5.53441 2.11562 5.29747 2.42086 5.1479C2.72611 4.99833 3.06892 4.94289 3.40575 4.98861L5.42861 5.29718L7.96575 3.85718ZM7.57147 12C7.57147 12.6781 7.77255 13.341 8.14928 13.9048C8.52602 14.4687 9.06149 14.9081 9.68798 15.1676C10.3145 15.4271 11.0038 15.495 11.6689 15.3627C12.334 15.2304 12.9449 14.9039 13.4244 14.4244C13.9039 13.9449 14.2304 13.334 14.3627 12.6689C14.495 12.0038 14.4271 11.3145 14.1676 10.688C13.9081 10.0615 13.4687 9.52602 12.9048 9.14928C12.341 8.77255 11.6781 8.57146 11 8.57146C10.0907 8.57146 9.21865 8.93269 8.57567 9.57567C7.93269 10.2187 7.57147 11.0907 7.57147 12Z" stroke="#4A6B94" stroke-width="1.4" stroke-linecap="round" stroke-linejoin="round"/>
</svg>
