<svg width="24" height="24" viewBox="0 0 24 24" fill="none" xmlns="http://www.w3.org/2000/svg">
<path d="M15 17C15 16.449 15.448 16 16 16C16.552 16 17 16.449 17 17C17 17.551 16.552 18 16 18C15.448 18 15 17.551 15 17ZM7 11C6.448 11 6 11.449 6 12C6 12.551 6.448 13 7 13C7.552 13 8 12.551 8 12C8 11.449 7.552 11 7 11ZM16 8C16.552 8 17 7.551 17 7C17 6.449 16.552 6 16 6C15.448 6 15 6.449 15 7C15 7.551 15.448 8 16 8ZM24 5V19C24 21.757 21.757 24 19 24H5C2.243 24 0 21.757 0 19V5C0 2.243 2.243 0 5 0H19C21.757 0 24 2.243 24 5ZM9.958 11.5L14.015 9.246C14.544 9.714 15.239 9.999 16 9.999C17.654 9.999 19 8.653 19 6.999C19 5.345 17.654 3.999 16 3.999C14.346 3.999 13 5.345 13 6.999C13 7.169 13.015 7.336 13.042 7.499L8.985 9.753C8.456 9.285 7.761 9 7 9C5.346 9 4 10.346 4 12C4 13.654 5.346 15 7 15C7.761 15 8.456 14.715 8.985 14.247L13.042 16.501C13.015 16.664 13 16.83 13 17.001C13 18.655 14.346 20.001 16 20.001C17.654 20.001 19 18.655 19 17.001C19 15.347 17.654 14.001 16 14.001C15.239 14.001 14.544 14.286 14.015 14.754L9.958 12.5C9.985 12.337 10 12.171 10 12C10 11.829 9.985 11.663 9.958 11.5Z" fill="#5888FE" fill-opacity="0.3"/>
<path fill-rule="evenodd" clip-rule="evenodd" d="M9.958 11.5L14.015 9.246C14.544 9.714 15.239 9.999 16 9.999C17.654 9.999 19 8.653 19 6.999C19 5.345 17.654 3.999 16 3.999C14.346 3.999 13 5.345 13 6.999C13 7.169 13.015 7.336 13.042 7.499L8.985 9.753C8.456 9.285 7.761 9 7 9C5.346 9 4 10.346 4 12C4 13.654 5.346 15 7 15C7.761 15 8.456 14.715 8.985 14.247L13.042 16.501C13.015 16.664 13 16.83 13 17.001C13 18.655 14.346 20.001 16 20.001C17.654 20.001 19 18.655 19 17.001C19 15.347 17.654 14.001 16 14.001C15.239 14.001 14.544 14.286 14.015 14.754L9.958 12.5C9.985 12.337 10 12.171 10 12C10 11.829 9.985 11.663 9.958 11.5ZM16 16C15.448 16 15 16.449 15 17C15 17.551 15.448 18 16 18C16.552 18 17 17.551 17 17C17 16.449 16.552 16 16 16ZM6 12C6 11.449 6.448 11 7 11C7.552 11 8 11.449 8 12C8 12.551 7.552 13 7 13C6.448 13 6 12.551 6 12ZM17 7C17 7.551 16.552 8 16 8C15.448 8 15 7.551 15 7C15 6.449 15.448 6 16 6C16.552 6 17 6.449 17 7Z" fill="#5888FE"/>
</svg>
