<svg width="24" height="24" viewBox="0 0 24 24" fill="none" xmlns="http://www.w3.org/2000/svg">
<g clip-path="url(#clip0_917_13422)">
<path d="M13 14.184V8.00001C13 7.73479 12.8946 7.48044 12.7071 7.2929C12.5196 7.10536 12.2652 7.00001 12 7.00001C11.7348 7.00001 11.4804 7.10536 11.2929 7.2929C11.1054 7.48044 11 7.73479 11 8.00001V14.184C10.3345 14.4198 9.77369 14.8833 9.41674 15.4925C9.0598 16.1018 8.92965 16.8175 9.0493 17.5134C9.16895 18.2093 9.53069 18.8405 10.0706 19.2955C10.6105 19.7505 11.2939 20.0001 12 20.0001C12.7061 20.0001 13.3895 19.7505 13.9294 19.2955C14.4693 18.8405 14.8311 18.2093 14.9507 17.5134C15.0704 16.8175 14.9402 16.1018 14.5833 15.4925C14.2263 14.8833 13.6655 14.4198 13 14.184ZM17 12.111V5.00001C16.789 -1.60899 7.209 -1.59999 7 5.00001V12.111C6.03533 13.0956 5.38281 14.343 5.12426 15.6969C4.8657 17.0509 5.01262 18.451 5.5466 19.7217C6.08058 20.9925 6.97784 22.0773 8.12587 22.8402C9.27391 23.603 10.6216 24.01 12 24.01C13.3784 24.01 14.7261 23.603 15.8741 22.8402C17.0222 22.0773 17.9194 20.9925 18.4534 19.7217C18.9874 18.451 19.1343 17.0509 18.8758 15.6969C18.6172 14.343 17.9647 13.0956 17 12.111ZM12 22C10.9935 21.9887 10.0137 21.675 9.18785 21.0996C8.36198 20.5243 7.72823 19.7138 7.36892 18.7736C7.00961 17.8334 6.94136 16.8069 7.17303 15.8274C7.4047 14.8478 7.92558 13.9606 8.668 13.281C8.77246 13.1872 8.85601 13.0725 8.91321 12.9444C8.97041 12.8162 8.99998 12.6774 9 12.537V5.00001C9 4.20436 9.31607 3.4413 9.87868 2.87869C10.4413 2.31608 11.2044 2.00001 12 2.00001C12.7957 2.00001 13.5587 2.31608 14.1213 2.87869C14.6839 3.4413 15 4.20436 15 5.00001V12.537C15 12.6774 15.0296 12.8162 15.0868 12.9444C15.144 13.0725 15.2275 13.1872 15.332 13.281C16.0744 13.9606 16.5953 14.8478 16.827 15.8274C17.0586 16.8069 16.9904 17.8334 16.6311 18.7736C16.2718 19.7138 15.638 20.5243 14.8122 21.0996C13.9863 21.675 13.0065 21.9887 12 22Z" fill="#333333"/>
</g>
<defs>
<clipPath id="clip0_917_13422">
<rect width="24" height="24" fill="white"/>
</clipPath>
</defs>
</svg>
