<svg width="24" height="24" viewBox="0 0 24 24" fill="none" xmlns="http://www.w3.org/2000/svg">
<rect width="24" height="24" rx="12" fill="#F2F2F7"/>
<path fill-rule="evenodd" clip-rule="evenodd" d="M17.9997 11.6663C17.9997 15.1641 15.1641 17.9997 11.6663 17.9997C8.16854 17.9997 5.33301 15.1641 5.33301 11.6663C5.33301 8.16854 8.16854 5.33301 11.6663 5.33301C15.1641 5.33301 17.9997 8.16854 17.9997 11.6663ZM11.9997 6.99967C11.8156 6.99967 11.6663 7.14891 11.6663 7.33301C11.6663 7.5171 11.8156 7.66634 11.9997 7.66634C12.8913 7.66634 13.8108 8.11549 14.514 8.81871C15.2172 9.52193 15.6663 10.4414 15.6663 11.333C15.6663 11.5171 15.8156 11.6663 15.9997 11.6663C16.1838 11.6663 16.333 11.5171 16.333 11.333C16.333 10.2246 15.7822 9.14409 14.9854 8.34731C14.1886 7.55052 13.1081 6.99967 11.9997 6.99967Z" fill="#FF9500"/>
<path d="M18.1997 18.6664C18.0797 18.6664 17.9597 18.6197 17.873 18.533L16.633 17.293C16.453 17.113 16.453 16.8197 16.633 16.633C16.813 16.453 17.1064 16.453 17.293 16.633L18.533 17.873C18.713 18.053 18.713 18.3464 18.533 18.533C18.4397 18.6197 18.3197 18.6664 18.1997 18.6664Z" fill="#FF9500"/>
</svg>
