<svg width="32" height="32" viewBox="0 0 32 32" fill="none" xmlns="http://www.w3.org/2000/svg">
<path d="M30.625 24.9995C30.9234 24.9995 31.2095 24.881 31.4205 24.67C31.6315 24.459 31.75 24.1729 31.75 23.8745V21.6245C31.7494 21.4168 31.6912 21.2133 31.582 21.0365C31.4728 20.8598 31.3168 20.7168 31.1313 20.6233L24.3813 17.2483C24.2242 17.1691 24.0508 17.1279 23.875 17.1279C23.6992 17.1279 23.5258 17.1691 23.3687 17.2483L16.6187 20.6233C16.4332 20.7168 16.2772 20.8598 16.168 21.0365C16.0588 21.2133 16.0006 21.4168 16 21.6245V23.8745C16 24.1729 16.1185 24.459 16.3295 24.67C16.5405 24.881 16.8266 24.9995 17.125 24.9995H18.25V29.4995H17.125C16.8266 29.4995 16.5405 29.618 16.3295 29.829C16.1185 30.04 16 30.3262 16 30.6245C16 30.9229 16.1185 31.209 16.3295 31.42C16.5405 31.631 16.8266 31.7495 17.125 31.7495H30.625C30.9234 31.7495 31.2095 31.631 31.4205 31.42C31.6315 31.209 31.75 30.9229 31.75 30.6245C31.75 30.3262 31.6315 30.04 31.4205 29.829C31.2095 29.618 30.9234 29.4995 30.625 29.4995H29.5V24.9995H30.625ZM22.75 29.4995H20.5V24.9995H22.75V29.4995ZM27.25 29.4995H25V24.9995H27.25V29.4995Z" fill="#8E8E93"/>
<path d="M16 27.0588C15.3417 26.826 14.7718 26.3948 14.3688 25.8246C13.9658 25.2544 13.7496 24.5732 13.75 23.875V21.625C13.7509 20.9987 13.926 20.3849 14.2558 19.8524C14.5856 19.32 15.0571 18.8898 15.6175 18.61L22.3675 15.235C22.6249 14.0067 22.753 12.7549 22.75 11.5C22.75 8.51631 21.5647 5.65483 19.455 3.54505C17.3452 1.43526 14.4837 0.25 11.5 0.25C8.51631 0.25 5.65483 1.43526 3.54505 3.54505C1.43526 5.65483 0.25 8.51631 0.25 11.5C0.25 22.0075 10.375 31.0863 10.7575 31.4688C10.9628 31.6491 11.2267 31.7486 11.5 31.7486C11.7733 31.7486 12.0372 31.6491 12.2425 31.4688C12.3438 31.3787 12.9625 30.8162 13.84 29.905C13.9612 29.3447 14.2231 28.8245 14.601 28.3934C14.9789 27.9624 15.4604 27.6347 16 27.4412V27.0588ZM11.5 17.125C10.3875 17.125 9.29994 16.7951 8.37492 16.177C7.44989 15.5589 6.72892 14.6804 6.30318 13.6526C5.87743 12.6248 5.76604 11.4938 5.98308 10.4026C6.20012 9.31147 6.73585 8.30919 7.52252 7.52252C8.30919 6.73585 9.31147 6.20012 10.4026 5.98308C11.4938 5.76604 12.6248 5.87743 13.6526 6.30318C14.6804 6.72892 15.5589 7.44989 16.177 8.37492C16.7951 9.29994 17.125 10.3875 17.125 11.5C17.125 12.9918 16.5324 14.4226 15.4775 15.4775C14.4226 16.5324 12.9918 17.125 11.5 17.125Z" fill="#8E8E93"/>
</svg>
