<svg width="36" height="36" viewBox="0 0 36 36" fill="none" xmlns="http://www.w3.org/2000/svg">
<path d="M3.00012 22.5L27.7501 22.5C30.6451 22.5 33.0001 24.855 33.0001 27.75C33.0001 30.645 30.6451 33 27.7501 33C24.8551 33 22.5001 30.645 22.5001 27.75V27" stroke="url(#paint0_linear_62_5842)" stroke-width="2.7" stroke-miterlimit="10" stroke-linecap="round" stroke-linejoin="round"/>
<path d="M3.00012 18.0002L27.7501 18.0002C30.6301 18.0002 33.0001 15.6452 33.0001 12.7502C33.0001 9.87024 30.6301 7.50024 27.7501 7.50024C24.8701 7.50024 22.5001 9.85524 22.5001 12.7502V13.5002" stroke="url(#paint1_linear_62_5842)" stroke-width="2.7" stroke-miterlimit="10" stroke-linecap="round" stroke-linejoin="round"/>
<path d="M3.00012 13.4999L13.9651 13.4999C16.2001 13.4999 18.0001 11.6849 18.0001 9.46493C18.0001 7.22993 16.1851 5.42993 13.9651 5.42993C11.7301 5.42993 9.93011 7.24493 9.93011 9.46493V10.0349" stroke="url(#paint2_linear_62_5842)" stroke-width="2.7" stroke-miterlimit="10" stroke-linecap="round" stroke-linejoin="round"/>
<defs>
<linearGradient id="paint0_linear_62_5842" x1="18.0001" y1="22.5" x2="18.0001" y2="33" gradientUnits="userSpaceOnUse">
<stop stop-color="#FF8552"/>
<stop offset="1" stop-color="#FFBC9F"/>
</linearGradient>
<linearGradient id="paint1_linear_62_5842" x1="18.0001" y1="7.50024" x2="18.0001" y2="18.0002" gradientUnits="userSpaceOnUse">
<stop stop-color="#FF8552"/>
<stop offset="1" stop-color="#FFBC9F"/>
</linearGradient>
<linearGradient id="paint2_linear_62_5842" x1="10.5001" y1="5.42993" x2="10.5001" y2="13.4999" gradientUnits="userSpaceOnUse">
<stop stop-color="#FF8552"/>
<stop offset="1" stop-color="#FFBC9F"/>
</linearGradient>
</defs>
</svg>
