<svg width="36" height="36" viewBox="0 0 36 36" fill="none" xmlns="http://www.w3.org/2000/svg">
<path d="M3.9375 21H32.0625L34.875 35.625H1.125L3.9375 21Z" fill="#85BEFF"/>
<path d="M2.27051 35.625H34.8747L32.2788 22.125H4.86645L2.27051 35.625Z" fill="#71AAFF"/>
<path d="M33.7937 30L33.1445 26.625H26.4378V21H23.0628V26.625H19.6878V21H16.3128V26.625H10.6878V21H7.31284V26.625H2.85616L2.20703 30H9.56284V35.625H12.9378V30H19.6878V35.625H23.0628V30H33.7937Z" fill="#F5FFFF"/>
<path d="M12.9375 35.625V30H19.6875V35.625H23.0625V30H33.7934L33.1442 26.625H26.4375V22.125H23.0625V26.625H19.6875V22.125H16.3125V26.625H10.6875V22.125H7.31254V26.625H4.00166L3.35254 30H9.56254V35.625H12.9375Z" fill="#E1FCFC"/>
<path d="M12.9375 30H19.6875V35.625H12.9375V30Z" fill="#A8DE50"/>
<path d="M33.1442 26.625L32.0625 21H26.4375V26.625H33.1442Z" fill="#C1E782"/>
<path d="M32.2791 22.125H26.4375V26.625H33.1442L32.2791 22.125Z" fill="#A8DE50"/>
<path d="M18.0001 1.6875C16.269 1.68756 14.5707 2.15958 13.0878 3.05278C11.605 3.94598 10.3937 5.22656 9.5843 6.75677C8.77491 8.28698 8.39803 10.0089 8.4942 11.7373C8.59037 13.4657 9.15596 15.1352 10.1301 16.5662L18.0001 28.125L25.87 16.5662C26.8441 15.1352 27.4097 13.4657 27.5059 11.7373C27.6021 10.0089 27.2252 8.28698 26.4158 6.75677C25.6064 5.22656 24.3952 3.94598 22.9123 3.05278C21.4295 2.15958 19.7311 1.68756 18.0001 1.6875Z" fill="#FF826D"/>
<path d="M11.2549 16.5662L18.5624 27.2987L25.8698 16.5662C26.617 15.4686 27.1267 14.227 27.3663 12.921C27.6059 11.6149 27.57 10.2732 27.261 8.98187C26.9521 7.69049 26.3768 6.47788 25.572 5.42172C24.7672 4.36556 23.7507 3.48912 22.5876 2.84856C21.4771 2.44847 20.3052 2.24591 19.1249 2.25006C11.4788 2.25006 6.9518 10.246 11.2549 16.5662Z" fill="#FF5555"/>
<path d="M18 18C21.7279 18 24.75 14.9779 24.75 11.25C24.75 7.52208 21.7279 4.5 18 4.5C14.2721 4.5 11.25 7.52208 11.25 11.25C11.25 14.9779 14.2721 18 18 18Z" fill="#E1FCFC"/>
<path d="M19.125 5.625C17.8577 5.62374 16.6158 5.97959 15.5415 6.65176C14.4672 7.32393 13.6041 8.28521 13.051 9.42541C12.498 10.5656 12.2774 11.8386 12.4146 13.0984C12.5519 14.3581 13.0413 15.5538 13.8268 16.5482C15.1234 17.5724 16.7509 18.0849 18.4004 17.9884C20.0498 17.8919 21.6065 17.1932 22.7748 16.0248C23.9432 14.8565 24.6419 13.2998 24.7384 11.6504C24.8348 10.0009 24.3224 8.3734 23.2982 7.07682C22.1109 6.13566 20.6401 5.62397 19.125 5.625Z" fill="#F5FFFF"/>
<path d="M18 16.3125C18.3107 16.3125 18.5625 16.0607 18.5625 15.75C18.5625 15.4393 18.3107 15.1875 18 15.1875C17.6893 15.1875 17.4375 15.4393 17.4375 15.75C17.4375 16.0607 17.6893 16.3125 18 16.3125Z" fill="#76736F"/>
<path d="M18 14.0623C17.8508 14.0623 17.7077 14.0031 17.6023 13.8976C17.4968 13.7921 17.4375 13.649 17.4375 13.4998V12.5138C17.4453 12.0923 17.5717 11.6815 17.8024 11.3286C18.033 10.9757 18.3584 10.6949 18.7414 10.5186C19.0118 10.3863 19.2419 10.1842 19.4079 9.93304C19.5738 9.68191 19.6696 9.39095 19.6852 9.09034C19.7009 8.78973 19.6358 8.49041 19.4968 8.22341C19.3578 7.95641 19.1499 7.73146 18.8947 7.57186C18.6394 7.41227 18.3462 7.32386 18.0453 7.31578C17.7444 7.30771 17.4468 7.38027 17.1833 7.52595C16.9199 7.67162 16.7003 7.88511 16.5471 8.14427C16.394 8.40343 16.313 8.69883 16.3125 8.99985C16.3125 9.14903 16.2532 9.2921 16.1477 9.39759C16.0423 9.50308 15.8992 9.56235 15.75 9.56235C15.6008 9.56235 15.4577 9.50308 15.3523 9.39759C15.2468 9.2921 15.1875 9.14903 15.1875 8.99985C15.1877 8.49809 15.3221 8.00552 15.5768 7.57322C15.8316 7.14092 16.1973 6.78464 16.6361 6.54132C17.0749 6.29799 17.5708 6.17649 18.0724 6.18941C18.574 6.20233 19.063 6.3492 19.4887 6.61479C19.9144 6.88038 20.2613 7.25502 20.4934 7.69986C20.7256 8.1447 20.8345 8.64353 20.8088 9.14463C20.7832 9.64574 20.624 10.1309 20.3477 10.5497C20.0714 10.9685 19.6881 11.3058 19.2375 11.5266C19.0436 11.611 18.8774 11.7485 18.758 11.9231C18.6386 12.0977 18.5708 12.3024 18.5625 12.5138V13.4998C18.5625 13.649 18.5032 13.7921 18.3977 13.8976C18.2923 14.0031 18.1492 14.0623 18 14.0623Z" fill="#76736F"/>
</svg>
