<svg width="29" height="26" viewBox="0 0 29 26" fill="none" xmlns="http://www.w3.org/2000/svg">
<path d="M3.04467 26H25.9553C28.2981 26 29.7586 23.447 28.5872 21.4138L17.1318 1.52492C15.9604 -0.508305 13.0396 -0.508305 11.8682 1.52492L0.412835 21.4138C-0.75856 23.447 0.70188 26 3.04467 26ZM14.5 17.2988C13.6633 17.2988 12.9787 16.6109 12.9787 15.7701V9.71263C12.9787 8.87182 13.6633 8.18389 14.5 8.18389C15.3367 8.18389 16.0213 8.87182 16.0213 9.71263V15.7701C16.0213 16.6109 15.3367 17.2988 14.5 17.2988ZM16.0213 19.8851C16.0213 20.7252 15.3402 21.4138 14.5 21.4138C13.6598 21.4138 12.9787 20.7252 12.9787 19.8851C12.9787 19.0449 13.6598 18.3563 14.5 18.3563C15.3402 18.3563 16.0213 19.0449 16.0213 19.8851Z" fill="#FFB800"/>
</svg>
