<svg width="393" height="304" viewBox="0 0 393 304" fill="none" xmlns="http://www.w3.org/2000/svg">
<path d="M16.1978 281.336C16.1978 281.336 -13.6039 193.788 18.7011 126.397C38.3603 85.3803 86.8179 33.2625 168.852 25.8647C302.88 13.7723 362.007 92.0843 375.567 155.664C387.636 212.251 363.07 278.488 363.07 278.488L16.1978 281.327V281.336Z" fill="#A2DEF4"/>
<path d="M338.652 94.283C338.652 94.283 292.042 242.653 294.099 250.186C295.668 255.917 302.821 252.304 302.821 252.304C302.821 252.304 317.95 195.518 327.427 165.918C335.533 140.589 349.013 95.4454 349.013 95.4454C349.013 95.4454 345.278 89.3992 338.662 94.292L338.652 94.283Z" fill="#C73E36"/>
<path d="M326.036 135.011L336.397 137.111C338.513 130.208 340.589 123.378 342.427 117.296L331.867 116.062C330.139 121.657 328.152 128.073 326.036 135.011Z" fill="#B32F36"/>
<path d="M343.202 92.3907C344.613 93.2917 345.358 94.4902 345.358 94.4902C345.358 94.4902 331.877 139.634 323.771 164.963C314.294 194.563 299.165 251.348 299.165 251.348C299.165 251.348 297.387 252.249 295.41 252.439C298.003 254.718 302.811 252.294 302.811 252.294C302.811 252.294 317.94 195.509 327.417 165.909C335.523 140.58 349.004 95.4363 349.004 95.4363C349.004 95.4363 346.957 92.1204 343.202 92.3907Z" fill="#B32F36"/>
<path d="M294.317 93.5443C294.317 93.5443 283.231 113.106 287.105 118.936C290.979 124.775 351.636 135.669 355.252 136.3C358.868 136.922 351.189 144.563 356.811 146.689C362.434 148.816 387.974 134.507 389.256 129.83C390.537 125.154 378.726 99.0318 374.514 98.2659C367.798 97.0404 369.497 108.196 363.775 107.961C358.053 107.718 297.148 88.9308 294.307 93.5443H294.317Z" fill="#C73E36"/>
<path d="M296.642 93.7878C296.642 93.7878 286.36 111.332 290.234 117.161C294.108 123 357.169 133.678 360.795 134.3C364.411 134.922 355.629 143.545 361.262 145.671C366.884 147.798 391.113 132.732 392.394 128.055C393.676 123.379 380.901 99.3203 376.689 98.5454C369.974 97.3199 372.636 106.412 366.914 106.177C361.192 105.934 299.483 89.1653 296.642 93.7787V93.7878Z" fill="#E58738"/>
<path d="M15.1548 284.165C13.0687 281.327 59.9468 235.03 179.74 231.254C299.533 227.479 363.07 278.497 363.07 278.497C363.07 278.497 290.771 299.366 184.518 303.142C78.2748 306.926 15.1548 284.165 15.1548 284.165Z" fill="#00BA86"/>
<path d="M45.3638 265.585C44.7579 266.576 27.6517 271.253 22.0986 258.656C22.0986 258.656 33.2147 255.818 41.887 258.971C41.887 258.971 40.1485 251.727 48.1354 247.951C48.1354 247.951 52.6454 253.619 45.3539 265.585H45.3638Z" fill="#00BA86"/>
<path d="M321.407 259.918C321.407 259.918 310.986 248.898 315.506 238.5C315.506 238.5 325.927 241.969 325.579 252.358C325.579 252.358 335.652 244.798 344.672 250.781C344.672 250.781 339.814 258.026 321.407 259.918Z" fill="#00BA86"/>
<path d="M228.694 262.432C241.191 261.963 228.177 243.059 228.177 243.059C228.177 243.059 274.529 259.125 291.714 244.951C291.714 244.951 291.714 244.951 291.724 244.942C262.817 236.328 225.366 229.813 179.73 231.255C131.113 232.787 94.5067 241.329 68.301 251.123C68.3408 251.754 68.4898 252.376 68.7878 252.989C74.5196 264.802 131.808 246.375 131.808 246.375C131.808 246.375 110.451 259.134 119.312 265.27C128.163 271.415 156.812 245.429 156.812 245.429C156.812 245.429 163.06 265.27 172.955 265.739C182.849 266.207 191.183 242.59 191.183 242.59C191.183 242.59 216.187 262.9 228.684 262.432H228.694Z" fill="#00987C"/>
<path d="M248.75 257.719C252.635 257.719 255.784 256.448 255.784 254.88C255.784 253.313 252.635 252.042 248.75 252.042C244.866 252.042 241.717 253.313 241.717 254.88C241.717 256.448 244.866 257.719 248.75 257.719Z" fill="#00987C"/>
<path d="M118.805 272.83C118.805 274.398 116.004 275.668 112.557 275.668C109.11 275.668 106.308 274.398 106.308 272.83C106.308 271.262 109.11 269.992 112.557 269.992C116.004 269.992 118.805 271.262 118.805 272.83Z" fill="#00987C"/>
<path d="M155.521 13.8269C155.521 13.8269 154.478 10.52 157.865 9.69097C161.253 8.86199 162.027 12.1689 162.027 12.1689L155.521 13.8179V13.8269Z" fill="#8D2C38"/>
<path d="M150.047 17.0078C150.047 17.0078 142.627 35.9032 144.564 41.3366C146.501 46.7701 148.19 47.9505 156.643 45.5897C165.097 43.2289 182.015 39.4444 182.015 39.4444C182.015 39.4444 189.574 37.1377 187.329 31.6501C184.429 24.5677 175.051 17.0078 169.846 13.2233C164.948 9.67306 151.1 12.7547 150.057 16.9988L150.047 17.0078Z" fill="#C73E36"/>
<g style="mix-blend-mode:multiply" opacity="0.3">
<path d="M181.18 24.9459C180.316 25.8109 179.124 26.4417 177.664 26.676C176.71 26.8291 175.885 26.6309 175.26 26.2254C171.624 27.0814 166.826 26.7571 161.779 23.0356L157.746 24.3332C157.746 24.3332 166.339 32.1274 178.975 29.0548C181.329 28.4781 183.187 27.6221 184.309 26.5768C183.753 25.847 183.157 25.1261 182.531 24.4233C182.084 24.5855 181.637 24.7567 181.19 24.9459H181.18Z" fill="#C73E36"/>
</g>
<path d="M147.703 39.5342C146.481 39.5342 145.329 39.8225 144.325 40.3271C144.375 40.6966 144.454 41.048 144.554 41.3453C146.322 46.3102 147.901 47.7159 154.627 46.112C154.627 46.0219 154.647 45.9228 154.647 45.8327C154.647 42.3545 151.537 39.5342 147.703 39.5342Z" fill="#8D2C38"/>
<path d="M187.329 31.6584C187.021 30.9105 186.634 30.1627 186.197 29.4058C182.67 29.7121 179.918 32.3973 179.918 35.6772C179.918 37.155 180.485 38.5156 181.428 39.5878C181.806 39.5067 182.024 39.4527 182.024 39.4527C182.024 39.4527 189.584 37.1459 187.339 31.6584H187.329Z" fill="#8D2C38"/>
<path d="M210.078 42.2821C210.078 42.2821 215.154 40.9846 215.81 44.2915C216.465 47.5984 217.111 55.1584 216.326 55.5098C215.541 55.8612 212.422 56.6902 212.422 56.6902" fill="#8D2C38"/>
<path d="M126.097 63.313C126.097 63.313 122.58 63.4301 123.494 66.9713C124.408 70.5125 125.58 73.5852 126.752 73.7023C127.924 73.8195 129.881 72.4048 129.881 72.4048L126.107 63.313H126.097Z" fill="#8D2C38"/>
<path d="M130.001 78.1898C130.001 78.1898 120.623 55.7532 126.871 52.4463C133.12 49.1394 196.925 31.4243 206.561 34.497C216.197 37.5696 214.369 68.5124 214.369 68.5124C214.369 68.5124 129.216 77.9646 129.991 78.1988L130.001 78.1898Z" fill="#CF5E56"/>
<path d="M134.203 78.3521C134.203 78.3521 126.226 58.5285 131.898 55.519C137.57 52.5094 194.919 35.7585 203.661 38.5608C212.402 41.3542 210.753 69.5396 210.753 69.5396C210.753 69.5396 133.497 78.1448 134.213 78.3611L134.203 78.3521Z" fill="#E38D59"/>
<path d="M136.905 77.0092C136.905 77.0092 138.335 64.25 139.895 63.7815C141.455 63.3129 145.756 63.6643 146.67 64.9619C147.584 66.2594 144.713 75.8288 144.713 75.8288" fill="#EF1345"/>
<path d="M177.306 48.4279C177.306 48.4279 186.276 45.2562 187.379 49.3741C188.591 53.9425 179.829 54.6453 179.829 54.6453L177.316 48.4279H177.306Z" fill="#CF5E56"/>
<path d="M153.176 53.9424C153.176 53.9424 143.63 56.15 144.673 59.3758C145.766 62.7729 148.15 62.4485 153.524 60.4751L153.176 53.9424Z" fill="#CF5E56"/>
<path d="M113.977 95.725C113.163 93.8958 103.179 91.1115 100.189 91.544C96.752 92.0396 75.3743 95.8871 74.5299 101.176C74.4603 101.645 77.818 113.683 81.126 115.666C84.9505 117.945 103.438 108.664 107.163 106.844C110.898 105.024 114.782 97.5541 113.967 95.725H113.977ZM105.613 102.195C103.189 101.933 101.451 99.9329 101.739 97.7343C102.027 95.5357 104.232 93.9589 106.656 94.2202C109.08 94.4815 110.818 96.4819 110.53 98.6805C110.242 100.879 108.037 102.456 105.613 102.195Z" fill="#33366D"/>
<path d="M122.798 88.5073C122.798 88.5073 115.765 90.0572 116.639 95.0401C117.682 101.023 128.183 98.1938 128.183 98.1938L127.487 94.968C127.487 94.968 118.894 97.7253 118.288 94.8869C117.682 92.0485 124.368 90.3996 124.368 90.3996L122.808 88.5073H122.798Z" fill="#FBD831"/>
<path d="M128.173 106.772C128.173 106.772 120.097 85.9844 120.365 82.4432C120.623 78.902 124.527 77.5594 137.034 74.7301C149.531 71.8917 211.25 62.1331 218.542 63.7821C225.833 65.431 222.704 97.7974 222.972 98.7436C223.23 99.6897 128.441 108.196 128.183 106.772H128.173Z" fill="#E58738"/>
<path d="M200.313 87.3992C198.753 86.6873 193.021 88.8139 191.978 90.2375C191.362 91.0845 195.415 96.5901 199.429 101.474C203.69 101.059 207.604 100.672 210.962 100.321C207.942 96.1846 202.28 88.3002 200.313 87.4082V87.3992Z" fill="#EAE8FF"/>
<path d="M136.507 104.645C136.507 100.212 132.544 96.6167 127.656 96.6167C126.573 96.6167 125.55 96.7969 124.596 97.1213C126.434 102.284 128.183 106.772 128.183 106.772C128.232 107.024 131.272 106.961 136.219 106.682C136.408 106.033 136.517 105.348 136.517 104.645H136.507Z" fill="#8D2C38"/>
<path d="M222.704 87.1646C217.816 87.1646 213.853 90.7598 213.853 95.1931C213.853 96.9231 214.459 98.518 215.482 99.8246C220.18 99.2929 223.012 98.9055 222.972 98.7343C222.873 98.3738 223.27 93.3369 223.389 87.1916C223.171 87.1736 222.942 87.1646 222.714 87.1646H222.704Z" fill="#8D2C38"/>
<path d="M251.611 105.358C251.611 105.358 274.529 144.094 278.949 149.528C278.949 149.528 282.178 145.707 280.43 140.553C278.343 134.408 262.022 106.304 259.161 104.889C256.3 103.474 251.611 105.358 251.611 105.358Z" fill="#97C1FF"/>
<path d="M98.1627 120.198C98.1627 120.198 90.0566 122.289 89.6294 127.317C89.2023 132.354 85.4671 165.108 91.2487 164.206C94.3282 163.729 106.229 160.927 106.229 160.927L98.1527 120.198H98.1627Z" fill="#97C1FF"/>
<path d="M122.372 197.221C122.372 197.221 144.971 198.915 143.441 216.369C141.902 233.823 128.143 243.888 109.845 239.707C95.1228 236.346 93.0069 222.929 95.7387 213.522C99.4739 200.645 109.944 196.275 122.372 197.221Z" fill="#252143"/>
<g style="mix-blend-mode:multiply" opacity="0.3">
<path d="M142.13 208.269C142.249 209.359 142.269 210.513 142.16 211.747C140.62 229.201 126.862 239.266 108.564 235.085C101.232 233.409 97.0303 229.246 94.9939 224.317C96.0568 231.12 100.299 237.527 109.835 239.698C128.143 243.879 141.902 233.814 143.432 216.361C143.71 213.162 143.183 210.495 142.13 208.269Z" fill="#252143"/>
</g>
<g style="mix-blend-mode:multiply" opacity="0.3">
<path d="M121.209 212.278C121.209 212.278 129.355 212.891 128.799 219.181C128.243 225.47 123.286 229.092 116.689 227.588C111.385 226.38 110.62 221.541 111.603 218.153C112.954 213.513 116.729 211.936 121.199 212.278H121.209Z" fill="#252143"/>
</g>
<path d="M111.077 201.898C106.269 203.565 103.01 206.854 100.328 210.719C99.1459 212.422 101.947 214.251 103.129 212.539C105.523 209.088 108.235 206.214 112.527 204.727C114.603 204.006 113.133 201.177 111.067 201.898H111.077Z" fill="white"/>
<path d="M99.7718 215.387C97.5565 215.207 97.2386 218.315 99.4539 218.505C101.669 218.685 101.987 215.576 99.7718 215.387Z" fill="white"/>
<path d="M120.037 211.107C120.037 211.107 128.183 211.72 127.627 218.009C127.07 224.299 122.113 227.921 115.517 226.416C110.212 225.209 109.447 220.37 110.431 216.982C111.782 212.342 115.557 210.765 120.027 211.107H120.037Z" fill="#97C1FF"/>
<path d="M119.163 216.315C119.163 216.315 121.895 216.522 121.706 218.631C121.517 220.739 119.858 221.956 117.643 221.451C115.865 221.046 115.607 219.424 115.934 218.288C116.391 216.729 117.653 216.207 119.153 216.315H119.163Z" fill="#252143"/>
<path d="M251.741 196.374C251.741 196.374 274.34 198.068 272.81 215.521C271.281 232.975 257.522 243.04 239.214 238.859C224.492 235.498 222.376 222.081 225.108 212.674C228.843 199.798 239.313 195.428 251.741 196.374Z" fill="#252143"/>
<g style="mix-blend-mode:multiply" opacity="0.3">
<path d="M271.499 207.43C271.619 208.52 271.638 209.674 271.529 210.908C269.989 228.362 256.231 238.427 237.933 234.246C230.602 232.57 226.399 228.407 224.363 223.478C225.426 230.281 229.668 236.688 239.214 238.859C257.522 243.04 271.281 232.976 272.811 215.522C273.099 212.323 272.562 209.656 271.509 207.43H271.499Z" fill="#252143"/>
</g>
<g style="mix-blend-mode:multiply" opacity="0.3">
<path d="M250.579 211.431C250.579 211.431 258.724 212.044 258.168 218.333C257.612 224.622 252.655 228.245 246.059 226.74C240.754 225.533 239.989 220.694 240.972 217.306C242.323 212.665 246.098 211.088 250.569 211.431H250.579Z" fill="#252143"/>
</g>
<path d="M240.456 201.06C235.648 202.718 232.39 206.016 229.707 209.881C228.525 211.584 231.327 213.414 232.509 211.702C234.893 208.25 237.615 205.385 241.906 203.889C243.982 203.168 242.512 200.339 240.446 201.06H240.456Z" fill="white"/>
<path d="M229.141 214.549C226.926 214.368 226.618 217.477 228.823 217.666C231.038 217.846 231.346 214.738 229.141 214.549Z" fill="white"/>
<path d="M249.406 210.269C249.406 210.269 257.552 210.881 256.996 217.171C256.439 223.46 251.482 227.083 244.886 225.578C239.582 224.37 238.817 219.532 239.8 216.144C241.151 211.503 244.926 209.926 249.396 210.269H249.406Z" fill="#97C1FF"/>
<path d="M248.532 215.477C248.532 215.477 251.264 215.684 251.075 217.793C250.886 219.901 249.227 221.118 247.012 220.613C245.234 220.208 244.976 218.586 245.304 217.45C245.76 215.892 247.022 215.369 248.522 215.477H248.532Z" fill="#252143"/>
<path d="M89.7783 228.137C89.7783 228.137 82.4571 194.977 114.802 191.589C147.147 188.21 150.484 209.034 151.915 217.558C151.915 217.558 193.607 215.711 215.482 215.981C215.482 215.981 217.965 189.553 250.251 189.481C282.546 189.409 279.099 211.098 278.433 220.541C278.433 220.541 317.126 222.271 326.523 220.973C335.921 219.676 332.394 176.632 323.573 174.163C314.751 171.694 297.516 160.53 286.658 154.727C275.81 148.924 259.39 99.6173 241.231 95.3463C225.893 91.733 152.004 94.0938 101.391 112.052C85.477 117.702 100.865 165.161 83.8379 171.054C61.8442 178.659 38.1519 184.038 44.1818 210.566C47.9765 227.281 51.1057 235.219 53.162 237.138C55.2183 239.058 81.3445 233.705 89.7585 228.137H89.7783Z" fill="#3338FF"/>
<g style="mix-blend-mode:multiply" opacity="0.5">
<path d="M253.578 189.553C254.204 189.58 254.82 189.625 255.416 189.67C255.764 189.697 256.102 189.733 256.429 189.76C256.936 189.814 257.433 189.868 257.92 189.931C258.307 189.985 258.694 190.039 259.072 190.103C259.3 190.139 259.529 190.175 259.757 190.22C261.178 190.472 262.489 190.778 263.711 191.139L256.469 145.139L184.498 151.501C184.498 151.501 189.127 195.752 192.028 216.206C200.521 216.008 208.896 215.9 215.482 215.981C215.482 215.981 217.965 189.553 250.251 189.481C251.135 189.481 251.979 189.499 252.813 189.526C253.072 189.526 253.32 189.544 253.568 189.562L253.578 189.553Z" fill="#334DB1"/>
</g>
<path d="M184.508 151.501C180.743 124.685 182.998 119.387 184.409 111.493C185.253 106.745 234.903 102.194 242.135 105.744C246.784 108.024 258.545 145.95 259.191 149.419C240.446 148.87 184.498 151.492 184.498 151.492L184.508 151.501Z" fill="#97C1FF"/>
<g style="mix-blend-mode:multiply" opacity="0.5">
<path d="M175.895 216.657C176.243 216.648 176.581 216.639 176.929 216.621C177.008 216.621 177.097 216.621 177.187 216.621C177.525 216.612 177.862 216.603 178.2 216.585C178.24 216.585 178.29 216.585 178.329 216.585L172.001 152.609L153.812 137.895C153.812 137.895 108.633 134.462 106.239 160.935C105.156 172.91 105.395 183.948 106.279 193.446C108.762 192.581 111.583 191.932 114.812 191.589C147.157 188.21 150.494 209.034 151.925 217.558C151.925 217.558 162.395 217.099 175.597 216.666C175.697 216.666 175.796 216.666 175.895 216.657Z" fill="#334DB1"/>
</g>
<path d="M171.991 152.609C171.991 152.609 122.62 156.727 106.239 160.935C106.239 160.935 104.312 127.208 109.269 120.657C114.226 114.106 155.968 109.259 164.273 111.565C169.299 112.962 171.991 152.609 171.991 152.609Z" fill="#97C1FF"/>
<path d="M278.453 220.532C278.453 220.532 320.583 224.83 329.97 223.523C333.695 223.01 336.338 214.468 336.487 205.961C335.851 202.177 305.344 201.771 276.436 200.879C279.854 207.583 278.791 215.675 278.453 220.523V220.532Z" fill="#33366D"/>
<path d="M43.7747 227.885C44.0429 233.246 47.1721 239.671 48.4436 240.851C50.4999 242.77 81.3645 233.697 89.7785 228.128C89.7785 228.128 88.0898 220.424 89.9474 212.062C68.0928 216.901 43.8243 224.1 43.7747 227.876V227.885Z" fill="#33366D"/>
<path d="M215.492 215.981C215.492 215.981 216.267 207.791 222.515 200.519C210.257 200.69 196.896 201.015 182.372 201.555C169.726 202.024 158.134 202.754 147.494 203.673C150.455 208.71 151.339 214.125 151.915 217.558C151.915 217.558 193.608 215.711 215.482 215.981H215.492Z" fill="#33366D"/>
<path d="M119.868 132.119C115.825 130.227 110.63 131.353 106.368 133.011C105.345 145.094 106.249 160.935 106.249 160.935C110.908 159.737 118.249 158.547 126.365 157.457C126.335 148.491 125.381 134.705 119.878 132.128L119.868 132.119Z" fill="#79A6FF"/>
<path d="M63.0264 194.418C61.9436 190.535 59.5595 185.02 57.5528 181.218C48.0361 186.471 41.8076 193.896 43.5758 207.006C55.0395 204.303 64.4966 199.717 63.0264 194.427V194.418Z" fill="#EF1345"/>
<path d="M331.311 192.5C331.47 183.065 328.083 175.244 324.874 173.307C320.702 170.784 316.54 169.216 306.069 165.792C306.149 172.181 308.175 185.634 312.437 188.355C315.914 190.58 324.129 191.878 331.311 192.509V192.5Z" fill="#FBD831"/>
<path d="M111.573 169.784L133.14 167.216C133.14 167.216 133.209 162.647 127.299 163.053C121.388 163.449 114.951 164.63 114.951 164.63C114.951 164.63 110.421 165.837 111.573 169.784Z" fill="#33366D"/>
<path d="M192.028 161.746L211.826 161.106C211.826 161.106 212.561 157.223 205.469 156.745C197.313 156.205 192.276 156.727 192.028 161.746Z" fill="#33366D"/>
<path d="M202.548 150.726C201.872 141.093 199.051 130.83 196.319 127.703C193.339 124.279 187.15 123.531 182.481 125.253C182.283 130.866 182.71 138.742 184.508 151.492C184.508 151.492 192.068 151.14 202.548 150.717V150.726Z" fill="#79A6FF"/>
<g style="mix-blend-mode:screen" opacity="0.3">
<path d="M160.031 153.691C167.163 153.006 171.991 152.609 171.991 152.609C171.991 152.609 170.839 135.696 168.643 123.568C165.216 133.462 162.445 143.545 160.041 153.691H160.031Z" fill="#97C1FF"/>
</g>
<g style="mix-blend-mode:screen" opacity="0.3">
<path d="M166.09 113.827C165.524 112.557 164.918 111.746 164.272 111.565C162.931 111.187 160.696 111.007 157.895 110.989C153.464 122.018 144.603 144.599 141.901 155.565C146.084 155.096 150.156 154.673 153.892 154.294C157.1 140.58 160.965 127.037 166.09 113.827Z" fill="#97C1FF"/>
</g>
<g style="mix-blend-mode:screen" opacity="0.3">
<path d="M247.389 114.674C245.343 109.899 243.456 106.394 242.144 105.745C241.469 105.411 240.426 105.15 239.095 104.961C234.565 116.224 225.535 139.274 223.012 149.978C227.124 149.843 231.267 149.726 235.26 149.618C238.509 137.787 242.78 126.19 247.399 114.674H247.389Z" fill="#97C1FF"/>
</g>
<path d="M109.427 119.054C108.524 120.252 105.911 123.775 107.192 126.605C117.255 124.028 137.819 119.513 167.114 116.738C167.114 113.737 165.326 110.908 164.273 110.62C155.978 108.313 114.385 112.503 109.427 119.054Z" fill="#33366D"/>
<g style="mix-blend-mode:screen" opacity="0.3">
<path d="M250.509 122.541C247.052 131.425 243.863 140.382 241.3 149.482C248.492 149.338 254.86 149.293 259.201 149.419C258.833 147.419 254.77 134.002 250.509 122.541Z" fill="#97C1FF"/>
</g>
<path d="M252.873 154.781C251.184 154.52 248.224 134.408 250.856 132.786C253.489 131.164 266.939 137.003 268.618 146.707C270.297 156.412 254.562 155.042 252.873 154.781Z" fill="#33366D"/>
<path d="M251.989 135.399C251.989 135.399 253.042 152.303 254.602 152.556C256.161 152.808 258.516 151.898 257.959 145.861C257.393 139.832 255.754 136.742 251.999 135.39L251.989 135.399Z" fill="#97C1FF"/>
<path d="M154.736 84.4887C155.253 84.4887 169.319 80.2356 186.505 79.7671L187.021 85.2816C187.021 85.2816 164.282 87.0117 155.074 89.2193L154.726 84.4977L154.736 84.4887Z" fill="#C73E36"/>
<path d="M120.365 82.4431C120.265 83.7676 121.338 87.5161 122.719 91.688C126.196 90.6067 128.699 87.6152 128.699 84.101C128.699 81.56 127.398 79.2983 125.362 77.8296C121.875 79.1091 120.514 80.4157 120.365 82.4521V82.4431Z" fill="#8D2C38"/>
<path d="M218.541 63.7817C217.667 63.5834 216.008 63.5474 213.753 63.6465C213.098 64.7638 212.72 66.0434 212.72 67.404C212.72 71.8372 216.684 75.4325 221.571 75.4325C222.078 75.4325 222.585 75.3874 223.071 75.3063C222.535 69.3323 221.273 64.3944 218.532 63.7727L218.541 63.7817Z" fill="#8D2C38"/>
<path d="M218.541 63.7819C211.25 62.1239 149.531 71.8915 137.034 74.7299C124.537 77.5683 120.623 78.9018 120.365 82.443C120.335 82.8125 120.404 83.3711 120.544 84.074C125.769 81.9745 139.458 77.4872 172.716 72.9998C200.005 69.3145 214.518 67.9268 221.591 67.4132C220.866 65.4309 219.883 64.0973 218.551 63.7909L218.541 63.7819Z" fill="#C73E36"/>
<path d="M208.24 70.8104C208.945 70.441 209.422 69.7652 209.422 68.9722C209.422 67.8008 208.369 66.8457 207.078 66.8457C205.786 66.8457 204.733 67.8008 204.733 68.9722C204.733 69.7922 205.26 70.504 206.015 70.8555C204.555 73.5677 202.29 78.3614 203.958 79.3616C206.303 80.7762 210.207 79.5958 211.25 78.6497C212.124 77.8568 210.257 74.0903 208.25 70.8014L208.24 70.8104ZM207.743 78.4335C206.233 78.5686 204.952 78.091 204.872 77.3792C204.793 76.6674 205.965 75.9825 207.475 75.8474C208.985 75.7122 210.266 76.1898 210.346 76.9016C210.425 77.6135 209.253 78.2983 207.743 78.4335Z" fill="#FBD831"/>
<path d="M107.947 97.0137C108.315 96.8155 119.669 92.6796 120.713 93.86C121.756 95.0404 112.289 98.5816 109.517 98.8158C106.736 99.0501 106.656 97.7165 107.957 97.0047L107.947 97.0137Z" fill="#C73E36"/>
<path d="M152.978 81.7758C152.978 81.7758 155.392 81.2892 155.958 82.9922C156.574 84.8484 157.14 88.4797 157.14 88.4797C157.14 88.4797 157.776 89.7953 155.541 90.372C154.309 90.6873 149.719 92.5526 147.683 88.5518C145.647 84.5511 150.822 82.4065 152.988 81.7848L152.978 81.7758Z" fill="#8D2C38"/>
<path d="M154.965 90.5254C155.193 90.4533 155.392 90.3992 155.541 90.3632C157.776 89.7955 157.14 88.4709 157.14 88.4709C157.14 88.4709 156.574 84.8396 155.958 82.9834C155.392 81.2804 152.978 81.767 152.978 81.767C152.958 81.767 152.928 81.785 152.908 81.785C153.524 84.5062 154.388 88.3087 154.965 90.5164V90.5254Z" fill="#FBD831"/>
<path d="M186.813 87.0384C186.813 87.0384 184.349 87.2727 184.021 85.4075C183.654 83.3711 183.564 79.4514 183.564 79.4514C183.564 79.4514 183.107 77.9827 185.402 77.6313C186.673 77.442 191.472 75.9913 192.972 80.4696C194.472 84.9569 189.048 86.6239 186.813 87.0384Z" fill="#8D2C38"/>
<path d="M185.988 77.5237C185.75 77.5687 185.551 77.6138 185.402 77.6318C183.107 77.9742 183.564 79.4519 183.564 79.4519C183.564 79.4519 183.654 83.3716 184.021 85.408C184.359 87.2732 186.813 87.0389 186.813 87.0389C186.832 87.0389 186.862 87.0299 186.882 87.0209C186.634 84.0654 186.266 79.9295 185.988 77.5146V77.5237Z" fill="#FBD831"/>
<path d="M153.177 53.9422C153.177 53.9422 153.355 61.9707 157.687 61.6553C162.028 61.3399 176.958 57.8798 178.17 57.0869C179.382 56.303 177.306 48.4276 177.306 48.4276C177.306 48.4276 180.783 46.6976 181.816 48.8962C182.859 51.1038 183.902 58.5016 181.985 59.9162C180.078 61.3309 159.246 66.3769 156.633 65.8993C154.031 65.4308 152.124 64.3225 150.733 61.0155C149.342 57.7086 148.825 54.8703 153.167 53.9331L153.177 53.9422Z" fill="#8D2C38"/>
<path d="M159.167 52.284C159.167 52.284 159.306 52.239 159.554 52.1579C161.511 51.5181 170.223 48.7518 171.147 50.0854C172.19 51.5812 171.932 53.4734 171.584 54.1763C171.236 54.8881 161.253 57.4021 160.557 57.1678C159.862 56.9335 158.143 52.5904 159.306 52.239" fill="#FBD831"/>
<g style="mix-blend-mode:multiply" opacity="0.5">
<path d="M166.458 14.4127C168.554 15.6562 173.094 20.558 175.965 19.3776C176.283 19.2425 176.541 19.0172 176.76 18.7379C174.246 16.5393 171.763 14.629 169.846 13.2413C164.948 9.69113 151.1 12.7728 150.057 17.0168C150.057 17.0168 148.855 20.0805 147.544 24.0902C147.604 24.1353 147.643 24.1893 147.713 24.2254C150.186 25.6401 151.15 20.9725 152.789 17.4944C154.349 14.1875 163.468 12.6556 166.458 14.4217V14.4127Z" fill="#DB814F"/>
</g>
<path d="M186.902 19.8461C182.869 15.8273 171.594 14.5298 171.594 14.5298C172.975 15.575 174.504 16.8005 176.084 18.1431C178.975 18.8819 185.511 20.8373 182.74 22.7926C182.422 23.0179 182.054 23.2431 181.667 23.4504C178.061 25.4417 171.574 26.7213 164.64 21.6032L160.607 22.9007C160.607 22.9007 169.2 30.695 181.826 27.6223C187.508 26.2437 190.309 23.2161 186.902 19.8281V19.8461Z" fill="#FBD831"/>
<path d="M154.607 21.2606C154.607 21.2606 154.09 24.6846 155.779 25.036C157.468 25.3875 168.544 22.441 169.448 21.8463C170.362 21.2516 167.362 17.5932 165.932 17.9446C164.501 18.296 155.511 19.8369 154.607 21.2516V21.2606Z" fill="#8D2C38"/>
<path d="M147.504 26.2525C148.189 26.5228 149.024 26.4687 149.719 26.0362C150.742 25.3874 151.03 24.162 150.365 23.288C149.699 22.4139 148.328 22.2337 147.305 22.8825C146.59 23.333 146.242 24.0719 146.322 24.7747C143.203 25.2883 137.848 26.3966 137.828 28.0726C137.799 30.4334 140.848 32.4068 142.209 32.587C143.352 32.7402 145.676 29.4062 147.514 26.2435L147.504 26.2525ZM140.6 30.1181C139.706 29.1719 139.457 28.0456 140.044 27.6041C140.63 27.1626 141.832 27.568 142.716 28.5142C143.61 29.4603 143.858 30.5866 143.272 31.0281C142.686 31.4697 141.484 31.0642 140.6 30.1181Z" fill="#FBD831"/>
<path d="M79.2186 101.573C77.5299 103.231 82.2087 110.43 83.2518 111.728C83.6491 112.214 86.0233 111.746 88.8942 110.908C86.8876 107.682 84.5929 102.104 83.4008 99.0679C80.371 100.419 79.2087 101.573 79.2087 101.573H79.2186Z" fill="#3338FF"/>
<path d="M94.8449 95.9048C93.2554 96.1571 91.8249 96.4454 90.5137 96.7518C92.2024 99.5631 94.3382 105.123 95.5998 108.592C98.0336 107.637 99.9608 106.727 100.318 106.294C101.361 104.997 97.9542 95.4092 94.8449 95.9048Z" fill="#EF1345"/>
<path d="M83.4109 99.0675C84.593 102.095 86.8878 107.682 88.9043 110.908C91.0799 110.268 93.5236 109.412 95.5998 108.601C94.3382 105.132 92.2024 99.5721 90.5136 96.7607C87.454 97.4816 85.1295 98.3106 83.4109 99.0765V99.0675Z" fill="white"/>
<path d="M191.372 52.5184C191.372 55.546 193.726 58.0871 196.925 58.88L195.872 46.9048C193.26 48.0401 191.372 49.8603 191.372 52.5275V52.5184Z" fill="#33A940"/>
<path d="M206.65 52.5184C206.65 49.4097 204.266 46.1388 200.879 45.7964L201.703 58.6997C204.594 57.7536 206.65 55.3477 206.65 52.5184Z" fill="#EF1345"/>
<path d="M199.011 45.9045C197.899 46.1478 196.836 46.4722 195.872 46.8957L196.925 58.8709C197.591 59.0331 198.286 59.1232 199.011 59.1232C199.965 59.1232 200.869 58.9701 201.703 58.6907L200.879 45.7874C200.283 45.7243 199.657 45.7514 199.011 45.8955V45.9045Z" fill="white"/>
<path d="M183.514 115.629C183.514 115.629 232.34 111.142 245.363 110.79C245.363 110.79 246.664 103.465 236.77 102.762C226.876 102.05 193.607 104.753 187.418 107.132C183.127 108.79 183.514 115.638 183.514 115.638V115.629Z" fill="#33366D"/>
<path d="M260.055 32.6328C256.926 45.1667 266.344 55.9435 280.152 58.7819C293.97 61.6202 306.943 55.4479 310.083 42.914C313.212 30.3802 306.298 17.6661 292.49 14.8277C278.672 11.9893 263.185 20.09 260.055 32.6238V32.6328Z" fill="#FBD831"/>
<path d="M269.691 19.5493C267.844 21.8741 266.473 24.5142 265.757 27.3796C262.628 39.9135 272.046 50.6903 285.854 53.5286C293.552 55.1145 300.983 53.8891 306.596 50.3388C301.092 57.7546 290.88 60.9805 280.152 58.7819C266.334 55.9435 256.916 45.1577 260.055 32.6328C261.387 27.2985 264.963 22.7751 269.681 19.5493H269.691Z" fill="#FBB131"/>
<path d="M291.625 11.7817C292.589 11.9799 300.079 4.95159 298.341 2.45563C296.602 -0.040331 289.658 -0.589983 289.36 0.608439C288.705 3.23055 290.026 11.4483 291.625 11.7817Z" fill="#FBD831"/>
<path d="M279.099 61.4309C278.135 61.2326 270.645 68.261 272.383 70.7569C274.122 73.2529 281.066 73.8025 281.364 72.6041C282.019 69.982 280.698 61.7643 279.099 61.4309Z" fill="#FBD831"/>
<path d="M257.989 30.9292C258.208 30.0552 250.459 23.2611 247.708 24.838C244.956 26.4149 244.35 32.7134 245.671 32.9837C248.562 33.5784 257.622 32.38 257.989 30.9292Z" fill="#FBD831"/>
<path d="M312.735 42.283C312.516 43.1571 320.265 49.9511 323.016 48.3743C325.768 46.7974 326.374 40.4989 325.053 40.2286C322.162 39.6339 313.102 40.8323 312.735 42.283Z" fill="#FBD831"/>
<path d="M270.436 15.0433C271.271 14.5657 271.092 4.79811 267.913 4.14934C264.734 3.50057 259.4 7.56439 260.125 8.60062C261.704 10.8713 269.046 15.8452 270.436 15.0433Z" fill="#FBB131"/>
<path d="M300.288 58.1779C299.453 58.6555 299.632 68.4231 302.811 69.0718C305.99 69.7296 311.324 65.6568 310.599 64.6205C309.02 62.3498 301.678 57.3759 300.288 58.1779Z" fill="#FBB131"/>
<path d="M261.585 50.149C261.059 49.3921 250.29 49.5543 249.565 52.4377C248.85 55.3212 253.33 60.1599 254.473 59.5021C256.976 58.0694 262.45 51.4105 261.575 50.149H261.585Z" fill="#FBB131"/>
<path d="M309.139 23.0719C309.665 23.8288 320.434 23.6666 321.159 20.7832C321.874 17.9088 317.394 13.0611 316.251 13.7188C313.748 15.1515 308.264 21.8104 309.149 23.0719H309.139Z" fill="#FBB131"/>
<path d="M295.43 43.6979C295.43 43.6979 278.592 37.3994 272.344 36.4533C266.095 35.5072 267.655 48.2663 278.592 51.8886C289.529 55.5109 299.076 47.4824 295.43 43.6979Z" fill="#C71345"/>
<path d="M278.592 51.8885C274.33 50.4738 271.499 47.6805 269.989 44.8422C273.277 43.1932 277.311 43.3284 282.238 44.9593C286.499 46.374 289.937 48.3023 291.447 51.1406C288.158 52.7896 283.519 53.5195 278.592 51.8885Z" fill="#EF1345"/>
<path d="M289.877 45.7428C286.579 45.4274 276.486 41.8322 275.294 40.859C274.251 40.003 273.883 37.9395 274.161 36.8042C279.734 38.0657 289.44 41.5078 293.522 42.9945C292.907 44.1659 291.645 45.914 289.867 45.7428H289.877Z" fill="white"/>
<path d="M266.095 17.7106C267.138 16.4491 272.493 18.4855 272.493 18.4855C272.493 18.4855 283.281 20.5489 286.599 24.4235C288.774 24.5497 290.304 25.1894 291.337 25.9013C297.685 24.802 306.645 29.902 306.645 29.902C306.645 29.902 313.321 31.8664 312.794 33.9388C312.437 35.3445 308.781 34.1821 305.821 33.227C304.708 36.0924 302.175 39.5435 296.493 38.0387C289.519 36.2005 288.615 30.9292 289.668 27.9467C288.685 27.4781 287.681 27.1447 286.768 26.9105C285.585 29.8299 280.946 33.6324 274.112 30.686C268.767 28.3792 269.413 24.2703 270.675 21.459C267.754 20.3777 265.141 18.8549 266.095 17.7015V17.7106Z" fill="#33366D"/>
<g style="mix-blend-mode:screen" opacity="0.5">
<path d="M299.99 29.2441C299.99 29.2441 305.324 31.6049 303.765 33.6143C302.205 35.6237 299.99 29.2441 299.99 29.2441Z" fill="#33366D"/>
</g>
<g style="mix-blend-mode:screen" opacity="0.5">
<path d="M280.062 22.5137C280.062 22.5137 285.397 24.8745 283.837 26.8839C282.277 28.8932 280.062 22.5137 280.062 22.5137Z" fill="#33366D"/>
</g>
<path d="M311.612 103.924C311.513 103.897 311.413 103.888 311.324 103.888C310.271 103.861 310.013 104.762 309.069 108.105L309.039 108.204C308.841 108.889 308.672 109.52 308.503 110.097C306.675 104.681 305.602 102.537 304.688 102.32C304.579 102.293 304.44 102.266 304.301 102.266C303.397 102.239 303.119 103.041 302.473 105.357C301.807 107.727 301.172 109.97 300.635 112.259C300.407 113.205 300.675 113.764 301.44 113.944C301.559 113.971 301.688 113.998 301.827 113.998C302.552 114.016 302.85 113.403 303.059 112.8C303.576 111.241 304.003 109.808 304.639 107.565C305.185 108.961 305.582 110.061 305.91 110.989C306.347 112.214 306.695 113.178 307.162 114.25C307.47 114.953 307.708 115.386 308.344 115.539C308.463 115.566 308.592 115.593 308.731 115.593C309.457 115.611 309.755 114.998 309.963 114.395C310.569 112.575 310.986 111.151 311.503 109.295C311.92 107.799 312.119 107.051 312.457 105.537C312.526 105.204 312.755 104.177 311.622 103.915L311.612 103.924Z" fill="#8D2C38"/>
<path d="M320.086 116.179C319.877 115.8 319.42 115.656 319.092 115.584L315.466 114.746C314.364 114.485 314.374 114.421 314.463 113.989C314.552 113.547 314.811 112.637 314.98 112.034L315.943 112.259C316.509 112.394 317.086 112.52 317.751 112.628C318.009 112.673 318.228 112.691 318.397 112.691C319.251 112.709 319.49 112.304 319.599 111.898C319.947 110.673 318.824 110.421 316.609 109.898L315.665 109.682C315.854 108.988 315.973 108.501 316.043 108.204C316.072 108.078 316.092 107.997 316.102 107.943C316.211 107.546 316.301 107.474 316.35 107.474C316.42 107.474 316.499 107.492 316.609 107.51C316.728 107.528 317.115 107.618 317.622 107.735C318.705 107.979 320.195 108.321 320.831 108.42C321.069 108.456 321.258 108.474 321.427 108.483C322.122 108.501 322.519 108.231 322.688 107.645C322.937 106.78 322.231 106.438 321.437 106.204C320.473 105.915 318.337 105.42 318.327 105.42C317.344 105.194 316.668 105.059 316.102 105.041C314.384 104.996 313.887 106.168 313.291 108.096L313.241 108.258C313.033 108.952 312.824 109.619 312.645 110.249C312.297 111.484 311.999 112.727 311.88 113.358C311.503 115.214 311.761 116.332 314.225 116.899C316.966 117.53 318.208 117.818 318.913 117.836C319.778 117.855 320.006 117.449 320.125 117.044C320.195 116.782 320.255 116.467 320.086 116.179Z" fill="#8D2C38"/>
<path d="M332.513 108.745C331.917 108.61 331.331 108.772 330.735 109.268L327.765 111.764L326.483 108.277C326.225 107.592 325.798 107.186 325.202 107.051C324.427 106.871 323.831 107.195 323.642 107.853C323.563 108.142 323.592 108.484 323.751 108.88L325.629 113.395L321.596 116.54C321.258 116.81 321.049 117.098 320.97 117.387C320.781 118.053 321.139 118.585 321.913 118.765C322.519 118.9 323.096 118.738 323.692 118.243L326.662 115.747L327.943 119.234C328.202 119.919 328.619 120.324 329.225 120.459C329.354 120.486 329.483 120.504 329.602 120.513C330.188 120.531 330.626 120.216 330.784 119.666C330.864 119.378 330.834 119.035 330.675 118.639L328.808 114.125L332.841 110.98C333.179 110.71 333.387 110.421 333.467 110.133C333.556 109.827 333.526 109.538 333.377 109.295C333.268 109.115 333.03 108.871 332.523 108.754L332.513 108.745Z" fill="#8D2C38"/>
<path d="M342.01 110.818C340.579 110.412 339.358 110.124 338.255 109.862C337.311 109.646 336.864 109.556 335.98 109.421C335.801 109.394 335.642 109.376 335.503 109.376C334.788 109.358 334.341 109.637 334.182 110.214C333.854 111.376 335.016 111.647 336.944 112.088L337.152 112.133C336.964 112.701 336.765 113.413 336.526 114.269C335.811 116.792 335.334 118.558 334.977 120.108C334.748 121.054 335.026 121.621 335.791 121.793C335.911 121.82 336.04 121.847 336.189 121.847C336.924 121.865 337.222 121.252 337.43 120.657C338.026 118.837 338.473 117.323 339 115.467C339.308 114.368 339.477 113.656 339.666 112.827L339.695 112.71C340.351 112.845 340.917 112.953 341.434 113.043C341.652 113.079 341.851 113.106 342.01 113.106C342.874 113.124 343.172 112.692 343.282 112.313C343.49 111.565 343.142 111.142 342.04 110.818H342.01Z" fill="#8D2C38"/>
<path d="M354.05 116.034C354.914 116.052 355.212 115.62 355.321 115.242C355.53 114.494 355.192 114.07 354.08 113.746C352.649 113.34 351.427 113.052 350.325 112.791C349.381 112.574 348.934 112.484 348.05 112.349C347.871 112.322 347.712 112.304 347.573 112.304C346.858 112.286 346.411 112.565 346.252 113.142C345.924 114.304 347.086 114.575 349.003 115.016L349.212 115.061C349.033 115.62 348.834 116.305 348.586 117.197C347.871 119.729 347.394 121.495 347.026 123.036C346.798 123.982 347.076 124.55 347.841 124.721C347.96 124.748 348.089 124.775 348.228 124.775C348.964 124.793 349.262 124.18 349.47 123.585C350.076 121.765 350.513 120.251 351.04 118.395C351.348 117.296 351.517 116.584 351.705 115.755L351.735 115.638C352.391 115.773 352.957 115.881 353.474 115.971C353.692 116.007 353.891 116.034 354.05 116.034Z" fill="#8D2C38"/>
<path d="M363.974 120.072C364.709 117.468 363.407 115.639 360.308 114.927C359.772 114.801 359.265 114.738 358.798 114.72C357.417 114.684 355.629 115.152 354.944 117.585C353.771 121.739 353.205 123.856 353.056 124.676C352.927 125.424 353.016 125.812 353.901 126.019C354.06 126.055 354.248 126.091 354.437 126.1C354.844 126.109 355.371 125.965 355.589 125.208L356.344 122.541C356.603 122.613 356.841 122.667 357.099 122.721C357.358 122.784 357.606 122.829 357.844 122.874L359.305 126.479C359.503 126.956 359.831 127.515 360.576 127.695C360.685 127.722 360.805 127.74 360.914 127.74C361.51 127.758 361.977 127.434 362.126 126.911C362.215 126.578 362.176 126.181 362.017 125.83L360.775 123.018C362.424 122.757 363.497 121.775 363.983 120.072H363.974ZM361.381 119.45C361.123 120.369 360.556 120.766 359.543 120.739C359.096 120.73 358.619 120.631 358.281 120.55C357.884 120.459 357.417 120.351 357 120.243C357.139 119.703 357.318 119.09 357.447 118.621L357.477 118.522C357.854 117.18 358.202 117.089 358.649 117.098C358.848 117.098 359.086 117.144 359.404 117.216C360.288 117.423 360.894 117.711 361.212 118.09C361.5 118.432 361.56 118.874 361.401 119.45H361.381Z" fill="#8D2C38"/>
<path d="M367.917 117.017C367.828 116.999 367.749 116.99 367.659 116.981C366.527 116.954 366.149 118.278 365.335 121.189C364.639 123.64 364.172 125.37 363.805 126.938C363.527 128.109 364.103 128.506 364.639 128.632C364.758 128.659 364.898 128.686 365.037 128.686C365.782 128.704 366.08 128.1 366.288 127.496C366.894 125.658 367.311 124.234 367.828 122.396C368.245 120.901 368.444 120.153 368.782 118.639C368.98 117.738 368.682 117.188 367.917 117.008V117.017Z" fill="#8D2C38"/>
<path d="M378.934 119.937C378.289 119.189 377.265 118.657 375.894 118.333C375.348 118.206 374.832 118.134 374.355 118.125C372.964 118.089 371.156 118.558 370.481 120.991C369.527 124.37 368.851 126.902 368.682 127.767C368.514 128.596 368.484 129.209 369.537 129.452C369.636 129.47 369.765 129.497 369.914 129.506C370.53 129.524 370.967 129.118 371.196 128.307L371.871 125.947C372.13 126.019 372.368 126.073 372.626 126.127C373.56 126.343 374.365 126.46 375.09 126.478C377.444 126.541 378.944 125.505 379.53 123.415C379.928 122.018 379.729 120.847 378.934 119.937ZM376.938 122.775C376.659 123.748 376.093 124.172 375.09 124.145C374.643 124.136 374.186 124.036 373.788 123.946C373.391 123.856 372.934 123.748 372.517 123.649C372.696 122.964 372.914 122.189 373.073 121.622C373.381 120.54 373.798 120.468 374.285 120.477C374.514 120.477 374.782 120.522 375.12 120.603C377.007 121.036 377.206 121.793 376.928 122.775H376.938Z" fill="#8D2C38"/>
<path d="M31.4761 211.494C23.6482 210.106 15.7706 209.043 8.04205 207.241C4.78373 206.484 3.40292 211.043 6.66124 211.8C14.3898 213.602 22.2773 214.666 30.0953 216.053C33.3735 216.63 34.7742 212.079 31.4761 211.494Z" fill="white"/>
<path d="M31.5557 222.604C21.6118 226.812 11.2905 230.209 1.34667 234.417C-1.6931 235.706 0.949317 239.778 3.97916 238.499C13.923 234.291 24.2443 230.894 34.1881 226.686C37.2279 225.397 34.5855 221.325 31.5557 222.604Z" fill="white"/>
<path d="M28.943 234.309C25.3768 237.535 21.8204 240.77 18.0058 243.761C15.4627 245.752 19.1581 249.086 21.6913 247.104C25.5059 244.112 29.0722 240.887 32.6285 237.652C35.0027 235.498 31.3272 232.155 28.943 234.309Z" fill="white"/>
<path d="M348.835 202.051C356.652 200.663 364.54 199.6 372.269 197.798C375.527 197.041 376.898 201.6 373.649 202.357C365.921 204.159 358.033 205.223 350.215 206.61C346.937 207.187 345.536 202.637 348.835 202.051Z" fill="white"/>
<path d="M348.755 213.152C358.699 217.36 369.02 220.757 378.964 224.965C382.004 226.253 379.361 230.326 376.332 229.047C366.388 224.839 356.066 221.442 346.123 217.234C343.083 215.945 345.725 211.872 348.755 213.152Z" fill="white"/>
<path d="M345.119 224.857C348.676 228.083 352.242 231.318 356.056 234.309C358.6 236.301 354.904 239.635 352.371 237.652C348.556 234.661 345 231.435 341.434 228.209C339.06 226.055 342.735 222.712 345.119 224.866V224.857Z" fill="white"/>
<path d="M79.0496 148.429C79.0496 152.429 75.4734 155.673 71.0628 155.673C66.6521 155.673 63.0759 152.429 63.0759 148.429C63.0759 144.428 66.6521 141.184 71.0628 141.184C75.4734 141.184 79.0496 144.428 79.0496 148.429Z" fill="#8EBFFF"/>
<path d="M247.449 81.6593C247.449 83.7498 245.582 85.4348 243.287 85.4348C240.992 85.4348 239.125 83.7407 239.125 81.6593C239.125 79.5778 240.992 77.8838 243.287 77.8838C245.582 77.8838 247.449 79.5778 247.449 81.6593Z" fill="white"/>
<path d="M346.748 164.17C346.748 166.26 344.881 167.945 342.586 167.945C340.291 167.945 338.424 166.251 338.424 164.17C338.424 162.089 340.291 160.395 342.586 160.395C344.881 160.395 346.748 162.089 346.748 164.17Z" fill="white"/>
<path d="M305.781 141.499C305.781 143.59 303.913 145.275 301.619 145.275C299.324 145.275 297.456 143.581 297.456 141.499C297.456 139.418 299.324 137.724 301.619 137.724C303.913 137.724 305.781 139.418 305.781 141.499Z" fill="#8EBFFF"/>
<path d="M268.101 91.1024C268.101 94.148 265.38 96.617 262.022 96.617C258.664 96.617 255.942 94.148 255.942 91.1024C255.942 88.0568 258.664 85.5879 262.022 85.5879C265.38 85.5879 268.101 88.0568 268.101 91.1024Z" fill="#8EBFFF"/>
<path d="M362.027 177.398C362.027 180.876 358.917 183.696 355.083 183.696C351.248 183.696 348.139 180.876 348.139 177.398C348.139 173.919 351.248 171.099 355.083 171.099C358.917 171.099 362.027 173.919 362.027 177.398Z" fill="white"/>
<path d="M60.2944 134.885C60.2944 137.146 58.2778 138.976 55.7844 138.976C53.291 138.976 51.2744 137.146 51.2744 134.885C51.2744 132.623 53.291 130.794 55.7844 130.794C58.2778 130.794 60.2944 132.623 60.2944 134.885Z" fill="white"/>
<path d="M34.1485 173.189C34.1485 173.189 12.9099 182.551 18.2245 187.237C23.5292 191.923 50.6686 177.352 53.619 173.189C56.5693 169.026 50.0825 165.386 34.1585 173.189H34.1485Z" fill="#00BA86"/>
<path d="M40.8241 144.779C45.1652 154.132 34.2876 178.956 34.2876 178.956C34.2876 178.956 6.79053 167.99 2.44941 158.646C-1.8917 149.293 3.18452 138.615 13.7741 134.786C24.3735 130.956 36.4829 135.435 40.8241 144.779Z" fill="#EF1345"/>
<path d="M33.5324 146.897C36.3835 153.033 33.0556 160.052 26.0919 162.566C19.1283 165.08 11.1812 162.143 8.33013 156.006C5.47911 149.87 8.80696 142.851 15.7706 140.337C22.7343 137.823 30.6814 140.76 33.5324 146.897Z" fill="white"/>
<path d="M16.3965 144.121L21.3336 146.851L26.9761 145.572L25.5655 150.555L28.6946 154.889L22.8734 155.249L19.168 159.214L16.9826 154.447L11.5686 152.555L16.0289 149.257L16.3965 144.121Z" fill="#FBD831"/>
<g style="mix-blend-mode:multiply" opacity="0.5">
<path d="M41.5393 147.094C40.8042 155.069 36.6121 166.819 19.3171 171.946C26.9861 176.046 34.2875 178.965 34.2875 178.965C34.2875 178.965 43.6055 157.673 41.5393 147.103V147.094Z" fill="#B01345"/>
</g>
<path d="M6.30373 124.487L63.076 111.26C63.076 111.26 63.076 97.0859 46.4069 102.754C46.4069 102.754 43.8042 85.2729 26.6185 89.0574C9.4329 92.8329 14.6383 109.368 14.6383 109.368C14.6383 109.368 -1.50432 111.26 6.30373 124.487Z" fill="white"/>
<path d="M23.7477 120.423L63.0661 111.259C63.0661 111.259 63.0661 97.0853 46.397 102.753C46.397 102.753 45.642 97.689 42.2546 93.5981C32.122 98.2927 35.6287 107.475 35.6287 107.475C25.7146 108.826 23.9365 116.26 23.7378 120.414L23.7477 120.423Z" fill="#BDFFF4"/>
<path d="M41.0253 66.1289C41.0253 66.1289 69.8634 68.787 112.083 72.95C112.083 72.95 118.351 56.6496 99.9631 53.2346C99.9631 53.2346 102.049 32.3838 81.1583 32.0054C60.2574 31.6269 60.2574 51.3423 60.2574 51.3423C60.2574 51.3423 40.1909 49.4501 41.0253 66.1289Z" fill="white"/>
<path d="M74.2046 56.5773C71.88 48.3505 70.7277 43.3496 62.9494 41.3853C60.2573 46.3141 60.2574 51.3421 60.2574 51.3421C60.2574 51.3421 40.1909 49.4498 41.0253 66.1286C41.0253 66.1286 63.6349 68.2101 98.1155 71.5801C94.132 50.1707 74.2046 56.5773 74.2046 56.5773Z" fill="#BDFFF4"/>
</svg>
